<?xml version="1.0" encoding="utf-8"?>
<!-- Generator: Adobe Illustrator 22.0.1, SVG Export Plug-In . SVG Version: 6.00 Build 0)  -->
<svg version="1.1" id="레이어_1" xmlns="http://www.w3.org/2000/svg" xmlns:xlink="http://www.w3.org/1999/xlink" x="0px"
	 y="0px" viewBox="0 0 36 56.7" style="enable-background:new 0 0 36 56.7;" xml:space="preserve">
<style type="text/css">
	.st0{fill:#C80000;}
</style>
<g>
	<g>
		<path class="st0" d="M19.9,23.7c0-0.1,1.2-1.3,2.7-1.2c1.6,0.1,2.9,1.4,2.8,1.6c-0.1,0.1-1.1-0.6-2.8-0.8
			C20.7,23.1,19.9,23.8,19.9,23.7z"/>
		<path class="st0" d="M16.3,23.7c0-0.1-1.2-1.3-2.7-1.2c-1.6,0.1-2.9,1.4-2.8,1.6c0.1,0.1,1.1-0.6,2.8-0.8
			C15.3,23.1,16.2,23.8,16.3,23.7z"/>
		<path class="st0" d="M12.1,23.5c0,0-0.6,0.3-1.3,0.1c-0.7-0.2-0.9-0.7-0.9-0.9c0,0,0.5,0.5,1.1,0.7C11.7,23.6,12.1,23.5,12.1,23.5
			z"/>
		<path class="st0" d="M23.9,23.5c0,0,0.6,0.3,1.3,0.1c0.7-0.2,0.9-0.7,0.9-0.9c0,0-0.5,0.5-1.1,0.7C24.3,23.6,23.9,23.5,23.9,23.5z
			"/>
	</g>
</g>
</svg>
