<?xml version="1.0" encoding="utf-8"?>
<!-- Generator: Adobe Illustrator 22.0.1, SVG Export Plug-In . SVG Version: 6.00 Build 0)  -->
<svg version="1.1" id="레이어_1" xmlns="http://www.w3.org/2000/svg" xmlns:xlink="http://www.w3.org/1999/xlink" x="0px"
	 y="0px" viewBox="0 0 36 56.7" style="enable-background:new 0 0 36 56.7;" xml:space="preserve">
<style type="text/css">
	.st0{fill:#C80000;}
</style>
<g>
	<g>
		<path class="st0" d="M19.9,24.2c-0.1-0.1,0.8-1.5,2.2-1.8c1.5-0.3,3.1,0.6,3.1,0.8c0,0.2-1.2-0.3-2.9,0
			C20.6,23.5,19.9,24.3,19.9,24.2z"/>
		<path class="st0" d="M16.4,24.2c0.1-0.1-0.8-1.5-2.2-1.8c-1.5-0.3-3.1,0.6-3.1,0.8c0,0.2,1.2-0.3,2.9,0
			C15.6,23.5,16.4,24.3,16.4,24.2z"/>
		<path class="st0" d="M12.1,22.9c0,0-0.6,0.3-1.3,0.1c-0.6-0.2-0.8-0.6-0.8-0.9c0,0,0.5,0.5,1.1,0.7C11.7,23,12.1,22.9,12.1,22.9z"
			/>
		<path class="st0" d="M23.9,22.9c0,0,0.6,0.3,1.3,0.1c0.7-0.2,0.9-0.7,0.9-0.9c0,0-0.5,0.5-1.1,0.7C24.3,23,23.9,22.9,23.9,22.9z"
			/>
	</g>
</g>
</svg>
