<?xml version="1.0" encoding="utf-8"?>
<!-- Generator: Adobe Illustrator 22.0.1, SVG Export Plug-In . SVG Version: 6.00 Build 0)  -->
<svg version="1.1" id="레이어_1" xmlns="http://www.w3.org/2000/svg" xmlns:xlink="http://www.w3.org/1999/xlink" x="0px"
	 y="0px" viewBox="0 0 36 56.7" style="enable-background:new 0 0 36 56.7;" xml:space="preserve">
<style type="text/css">
	.st0{fill:url(#SVGID_1_);stroke:#E6879B;stroke-width:0.109;stroke-linecap:round;stroke-linejoin:round;stroke-miterlimit:10;}
	.st1{fill:#E6879B;stroke:#E6879B;stroke-width:0.109;stroke-linecap:round;stroke-linejoin:round;stroke-miterlimit:10;}
	.st2{fill:url(#SVGID_2_);stroke:#E6879B;stroke-width:0.109;stroke-linecap:round;stroke-linejoin:round;stroke-miterlimit:10;}
	.st3{fill:url(#SVGID_3_);stroke:#E6879B;stroke-width:0.109;stroke-linecap:round;stroke-linejoin:round;stroke-miterlimit:10;}
	.st4{fill:url(#SVGID_4_);stroke:#E6879B;stroke-width:0.109;stroke-linecap:round;stroke-linejoin:round;stroke-miterlimit:10;}
	.st5{fill:url(#SVGID_5_);stroke:#E6879B;stroke-width:0.1085;stroke-miterlimit:10;}
	.st6{fill:#DD2E44;}
	.st7{fill:#A0041E;}
	.st8{fill:#EA596E;}
	.st9{fill:url(#SVGID_6_);stroke:#C80000;stroke-width:0.1;stroke-miterlimit:10;}
	.st10{fill:url(#SVGID_7_);}
	.st11{fill:url(#SVGID_8_);}
</style>
<g>
	<g>
		
			<linearGradient id="SVGID_1_" gradientUnits="userSpaceOnUse" x1="21.655" y1="-172.4147" x2="29.8345" y2="-172.4147" gradientTransform="matrix(1 0 0 -1 0 -140.8819)">
			<stop  offset="0" style="stop-color:#F0B4C8"/>
			<stop  offset="0.3" style="stop-color:#FFE1E6"/>
			<stop  offset="0.5" style="stop-color:#FAB4C8"/>
			<stop  offset="0.7" style="stop-color:#FFE1E6"/>
			<stop  offset="1" style="stop-color:#F0B4C8"/>
		</linearGradient>
		<path class="st0" d="M26.2,28.2c-0.3,2-2.1,3.6-4.5,4.5v1.6v0.1c0.7,0,1.5,0.1,2.1,0.1c0.3-0.6,0.6-1,0.8-1.4l4.1,1.7
			c0.3,0.1,0.6,0.1,0.9-0.1c0.3-0.2,0.3-0.6,0.1-0.7C28.7,32.2,27.3,30.1,26.2,28.2z"/>
		<path class="st1" d="M25.7,22c0,0.2,0,0.5,0,0.8c0.7,0,1.3,0.6,1.5,1.4c0,0.1,0,0.3,0,0.4c0,0.3-0.1,0.5-0.2,0.7
			c2,0.5,3.5,0.4,3.5-0.8C29.8,23.6,28.3,22.6,25.7,22z"/>
		
			<linearGradient id="SVGID_2_" gradientUnits="userSpaceOnUse" x1="23.1355" y1="-160.1904" x2="30.5355" y2="-160.1904" gradientTransform="matrix(1 0 0 -1 0 -140.8819)">
			<stop  offset="0" style="stop-color:#F0B4C8"/>
			<stop  offset="0.3" style="stop-color:#FFE1E6"/>
			<stop  offset="0.5" style="stop-color:#FAB4C8"/>
			<stop  offset="0.7" style="stop-color:#FFE1E6"/>
			<stop  offset="1" style="stop-color:#F0B4C8"/>
		</linearGradient>
		<path class="st2" d="M23.1,15.5c1.4,1.6,2.4,3.9,2.6,6.5c2.6,0.6,4.1,1.7,4.8,2.5v-0.1v-8.5C30.5,13.1,26.4,14.1,23.1,15.5z"/>
	</g>
	<g>
		
			<linearGradient id="SVGID_3_" gradientUnits="userSpaceOnUse" x1="-397.5456" y1="-172.4147" x2="-389.3661" y2="-172.4147" gradientTransform="matrix(-1 0 0 -1 -383.2006 -140.8819)">
			<stop  offset="0" style="stop-color:#F0B4C8"/>
			<stop  offset="0.3" style="stop-color:#FFE1E6"/>
			<stop  offset="0.5" style="stop-color:#FAB4C8"/>
			<stop  offset="0.7" style="stop-color:#FFE1E6"/>
			<stop  offset="1" style="stop-color:#F0B4C8"/>
		</linearGradient>
		<path class="st3" d="M9.8,28.2c0.3,2,2.1,3.6,4.5,4.5v1.6v0.1c-0.7,0-1.5,0.1-2.1,0.1c-0.3-0.6-0.6-1-0.8-1.4l-4.1,1.7
			c-0.3,0.1-0.6,0.1-0.9-0.1c-0.3-0.2-0.3-0.6-0.1-0.7C7.3,32.2,8.7,30.1,9.8,28.2z"/>
		<path class="st1" d="M10.3,22c0,0.2,0,0.5,0,0.8c-0.7,0-1.3,0.6-1.5,1.4c0,0.1,0,0.3,0,0.4c0,0.3,0.1,0.5,0.2,0.7
			c-2,0.5-3.5,0.4-3.5-0.8C6.2,23.6,7.7,22.6,10.3,22z"/>
		
			<linearGradient id="SVGID_4_" gradientUnits="userSpaceOnUse" x1="-396.0651" y1="-160.1904" x2="-388.6651" y2="-160.1904" gradientTransform="matrix(-1 0 0 -1 -383.2006 -140.8819)">
			<stop  offset="0" style="stop-color:#F0B4C8"/>
			<stop  offset="0.3" style="stop-color:#FFE1E6"/>
			<stop  offset="0.5" style="stop-color:#FAB4C8"/>
			<stop  offset="0.7" style="stop-color:#FFE1E6"/>
			<stop  offset="1" style="stop-color:#F0B4C8"/>
		</linearGradient>
		<path class="st4" d="M12.9,15.5c-1.4,1.6-2.4,3.9-2.6,6.5c-2.6,0.6-4.1,1.7-4.8,2.5v-0.1v-8.5C5.5,13.1,9.6,14.1,12.9,15.5z"/>
	</g>
</g>
<g>
	
		<linearGradient id="SVGID_5_" gradientUnits="userSpaceOnUse" x1="6.1" y1="439.5" x2="29.9" y2="439.5" gradientTransform="matrix(1 0 0 1 0 -396)">
		<stop  offset="0" style="stop-color:#F0B4C8"/>
		<stop  offset="0.12" style="stop-color:#FFE1E6"/>
		<stop  offset="0.88" style="stop-color:#FFE1E6"/>
		<stop  offset="1" style="stop-color:#F0B4C8"/>
	</linearGradient>
	<path class="st5" d="M29.6,44.2c-0.1-3.6,0.1-4.7-0.7-5.8l-0.1-0.1c-1.4,2.3-5.7,4-10.8,4s-9.4-1.7-10.8-4l-0.1,0.1
		c-0.8,1.1-0.6,2.2-0.7,5.8c-0.1,2-0.2,3.5-0.3,4.5H18l0,0h11.9C29.8,47.8,29.7,46.2,29.6,44.2z"/>
</g>
<g>
	<g>
		<g>
			<g>
				<path class="st6" d="M26.6,41.7c1.4-0.8,2.9-0.9,4.3-0.4c0.1-0.1,0.2-0.3,0-0.5l-1.8-3c-0.9-1.6-3.1,2.3-3,2.5
					c0.1,0.1-0.5,0.4-0.5,0.3c-0.1-0.2-4.6-0.3-3.7,1.3l1.8,3c0.1,0.2,0.3,0.2,0.4,0.2C24.5,43.8,25.3,42.5,26.6,41.7z"/>
			</g>
			<path class="st7" d="M23.9,45.2c0.7,0.6,2.4-1.9,2.7-3.1c0-0.1,0-0.2,0.1-0.3C24.3,43.2,23.9,44.5,23.9,45.2z M26.7,41.7
				c0.1,0,0.2,0.1,0.3,0.1c1.3,0.3,4.5,0.1,3.9-0.9l0,0C30.2,40.6,28.9,40.6,26.7,41.7z"/>
			<path class="st8" d="M27.4,41.2c0.3,0.4,0.1,1-0.3,1.3l-0.4,0.2c-0.4,0.3-1,0.1-1.3-0.3L25,41.5c-0.3-0.4-0.1-1,0.3-1.3l0.4-0.2
				c0.4-0.3,1-0.1,1.3,0.3L27.4,41.2z"/>
		</g>
		<g>
			<g>
				<path class="st6" d="M9.3,41.7c-1.4-0.8-2.9-0.9-4.3-0.4c-0.1-0.1-0.1-0.3,0-0.5l1.8-3c0.9-1.6,3.1,2.3,3,2.5
					c-0.1,0.1,0.5,0.4,0.5,0.3c0.1-0.2,4.6-0.3,3.7,1.3l-1.8,3c-0.1,0.2-0.3,0.2-0.4,0.2C11.5,43.8,10.7,42.5,9.3,41.7z"/>
			</g>
			<path class="st7" d="M12.1,45.1c-0.7,0.6-2.4-1.9-2.7-3.1c0-0.1,0-0.2-0.1-0.3C11.7,43.2,12.1,44.5,12.1,45.1z M9.2,41.6
				c-0.1,0-0.2,0.1-0.3,0.1c-1.3,0.4-4.5,0.1-3.9-0.9l0,0C5.8,40.6,7,40.5,9.2,41.6z"/>
			<path class="st8" d="M8.5,41.2c-0.3,0.4-0.1,1,0.3,1.3l0.4,0.2c0.4,0.3,1,0.1,1.3-0.3l0.5-0.9c0.3-0.4,0.1-1-0.3-1.3L10.3,40
				c-0.4-0.3-1-0.1-1.3,0.3L8.5,41.2z"/>
		</g>
		<g>
			<g>
				<path class="st6" d="M17.9,43.9c1.6,0,2.9,0.7,3.9,1.8c0.2-0.1,0.3-0.2,0.3-0.4v-3.5c0-1.9-3.8,0.5-3.8,0.7c0,0.1-0.6,0.1-0.6,0
					c0-0.2-3.9-2.6-3.9-0.7v3.5c0,0.2,0.1,0.3,0.3,0.4C15.1,44.6,16.4,43.9,17.9,43.9z"/>
			</g>
			<path class="st7" d="M13.9,45.5c0.3,0.8,3-0.5,3.9-1.3c0.1-0.1,0.1-0.2,0.2-0.2C15.2,44,14.1,44.9,13.9,45.5z M18.1,43.9
				c0.1,0.1,0.1,0.2,0.2,0.2c0.9,0.9,3.8,2.3,3.8,1.2v-0.1C21.6,44.7,20.5,44,18.1,43.9z"/>
			<path class="st8" d="M18.9,43.8c0,0.5-0.4,0.9-0.9,0.9h-0.5c-0.5,0-0.9-0.4-0.9-0.9v-1c0-0.5,0.4-0.9,0.9-0.9H18
				c0.5,0,0.9,0.4,0.9,0.9V43.8z"/>
		</g>
	</g>
</g>
<radialGradient id="SVGID_6_" cx="17.75" cy="431.6493" r="11.8357" gradientTransform="matrix(1 0 0 1 0 -396)" gradientUnits="userSpaceOnUse">
	<stop  offset="0.5" style="stop-color:#C80000"/>
	<stop  offset="1" style="stop-color:#FF0000"/>
</radialGradient>
<path class="st9" d="M10.8,22.5c0.1-1,0.5-2.3,1.5-3.9c0.8-1.2,1.7-2,2.4-2.5c2.7,1.1,4.8,2.3,6.4,3.2c0,0,3.8,1.9,4.2,4.2
	c0.1,0.3,0,1.2,0,1.2c0.1,0,0.3,0,0.4,0.1c0.1,0,0.2,0.1,0.3,0.2c0,0,0,0,0.1,0c0.1,0.1,0.1,0.1,0.2,0.2s0.1,0.1,0.1,0.2
	s0.1,0.2,0.1,0.3c0.1,0.3,0.1,0.6-0.1,1c-0.3,0.8-1.1,1.3-1.8,1.1c-0.1,0.7-0.2,1-0.5,1.4c-0.8,1.2-2.1,1.9-3.3,2.4v4.2
	c1.3,0.3,2.4,0.3,3.9,0.6c1.8,0.3,2.8,0.6,3.4,1.2c-0.3-5.7-0.5-11.4-0.8-17.1C26.9,15.2,22.9,11,18,11s-8.9,4.2-9.3,9.5
	c-0.3,5.7-0.5,11.4-0.8,17.1c0.6-0.5,1.6-0.9,3.4-1.3c1.4-0.3,2.6-0.3,3.9-0.6v-4.2c-1.2-0.5-2.5-1.2-3.3-2.4
	c-0.3-0.4-0.4-0.7-0.5-1.4c-0.7,0.2-1.5-0.2-1.8-1.1c-0.1-0.4-0.1-0.7-0.1-1c0-0.1,0.1-0.2,0.1-0.3c0-0.1,0.1-0.2,0.1-0.2s0,0,0-0.1
	s0.1-0.1,0.2-0.2c0,0,0,0,0.1-0.1s0.2-0.1,0.3-0.1s0.3,0,0.4,0C10.7,24.6,10.7,23,10.8,22.5z"/>
<g>
	
		<radialGradient id="SVGID_7_" cx="-12.1513" cy="514.6731" r="4.0339" gradientTransform="matrix(1.23 9.277342e-02 -6.816901e-02 0.7412 66.3705 -366.3488)" gradientUnits="userSpaceOnUse">
		<stop  offset="0.75" style="stop-color:#FF9696"/>
		<stop  offset="1" style="stop-color:#FF3232"/>
	</radialGradient>
	<path class="st10" d="M11.6,13.9c0.8,0.2,1.9,0.4,3.2,0.6c3.5,0.3,6.2-0.4,6.2-0.4c0-0.1-2.7,0.5-6.2-0.1c-1.1-0.2-1.8-0.5-2.4-0.7
		c-0.1,0.1-0.2,0.1-0.3,0.2C11.9,13.7,11.7,13.8,11.6,13.9z"/>
	
		<radialGradient id="SVGID_8_" cx="-1084.6029" cy="1388.6836" r="4.0339" gradientTransform="matrix(-0.3185 3.241935e-02 2.498376e-02 0.3076 -357.2435 -378.1692)" gradientUnits="userSpaceOnUse">
		<stop  offset="0.75" style="stop-color:#FF9696"/>
		<stop  offset="1" style="stop-color:#FF3232"/>
	</radialGradient>
	<path class="st11" d="M24.1,13.8c-0.2,0.1-0.5,0.2-0.8,0.2c-0.9,0.1-1.6-0.2-1.6-0.2s0.7,0.2,1.6,0c0.3-0.1,0.5-0.2,0.6-0.3
		l0.1,0.1C24.1,13.7,24.1,13.8,24.1,13.8z"/>
</g>
</svg>
