<?xml version="1.0" encoding="utf-8"?>
<!-- Generator: Adobe Illustrator 22.0.1, SVG Export Plug-In . SVG Version: 6.00 Build 0)  -->
<svg version="1.1" id="레이어_1" xmlns="http://www.w3.org/2000/svg" xmlns:xlink="http://www.w3.org/1999/xlink" x="0px"
	 y="0px" viewBox="0 0 36 56.7" style="enable-background:new 0 0 36 56.7;" xml:space="preserve">
<style type="text/css">
	.st0{fill:url(#SVGID_1_);stroke:#C80000;stroke-width:0.1;stroke-miterlimit:10;}
	.st1{fill:url(#SVGID_2_);stroke:#C80000;stroke-width:0.1;stroke-miterlimit:10;}
	.st2{fill:url(#SVGID_3_);stroke:#C80000;stroke-width:0.1;stroke-miterlimit:10;}
	.st3{fill:url(#SVGID_4_);stroke:#E6879B;stroke-width:0.1085;stroke-miterlimit:10;}
	.st4{fill:#DD2E44;}
	.st5{fill:#A0041E;}
	.st6{fill:#EA596E;}
	.st7{fill:url(#SVGID_5_);}
	.st8{fill:url(#SVGID_6_);}
	.st9{fill:url(#SVGID_7_);stroke:#C80000;stroke-width:0.1;stroke-miterlimit:10;}
	.st10{fill:url(#SVGID_8_);stroke:#C80000;stroke-width:0.1;stroke-miterlimit:10;}
	.st11{fill:url(#SVGID_9_);stroke:#C80000;stroke-width:0.1;stroke-miterlimit:10;}
	.st12{fill:url(#SVGID_10_);stroke:#C80000;stroke-width:0.1;stroke-miterlimit:10;}
	.st13{fill:url(#SVGID_11_);stroke:#E6879B;stroke-width:0.109;stroke-linecap:round;stroke-linejoin:round;stroke-miterlimit:10;}
	.st14{fill:#E6879B;stroke:#E6879B;stroke-width:0.109;stroke-linecap:round;stroke-linejoin:round;stroke-miterlimit:10;}
	.st15{fill:url(#SVGID_12_);stroke:#E6879B;stroke-width:0.109;stroke-linecap:round;stroke-linejoin:round;stroke-miterlimit:10;}
	.st16{fill:url(#SVGID_13_);stroke:#E6879B;stroke-width:0.109;stroke-linecap:round;stroke-linejoin:round;stroke-miterlimit:10;}
	.st17{fill:url(#SVGID_14_);stroke:#E6879B;stroke-width:0.109;stroke-linecap:round;stroke-linejoin:round;stroke-miterlimit:10;}
	.st18{fill:url(#SVGID_15_);}
	.st19{fill:none;stroke:#C80000;stroke-width:0.1083;stroke-miterlimit:10;}
	.st20{fill:url(#SVGID_16_);}
	.st21{fill:none;stroke:#C80000;stroke-width:0.1058;stroke-miterlimit:10;}
</style>
<g>
	<linearGradient id="SVGID_1_" gradientUnits="userSpaceOnUse" x1="24.7248" y1="29.1112" x2="24.7248" y2="27.7809">
		<stop  offset="0" style="stop-color:#C80000"/>
		<stop  offset="1" style="stop-color:#FF0000"/>
	</linearGradient>
	<path class="st0" d="M24.6,27.8c-0.1,0.6-0.2,1-0.4,1.3c0.4-0.4,0.8-0.9,1.1-1.3C25.1,27.8,24.8,27.9,24.6,27.8z"/>
	<linearGradient id="SVGID_2_" gradientUnits="userSpaceOnUse" x1="11.3844" y1="29.3631" x2="11.3844" y2="27.6641">
		<stop  offset="0" style="stop-color:#C80000"/>
		<stop  offset="1" style="stop-color:#FF0000"/>
	</linearGradient>
	<path class="st1" d="M11.4,27.7c-0.2,0.1-0.5,0-0.8,0c0.4,0.6,0.9,1.2,1.5,1.7c-0.1-0.1-0.2-0.2-0.2-0.3
		C11.6,28.7,11.5,28.4,11.4,27.7z"/>
	<linearGradient id="SVGID_3_" gradientUnits="userSpaceOnUse" x1="18" y1="25.6286" x2="18" y2="11.107">
		<stop  offset="0" style="stop-color:#C80000"/>
		<stop  offset="1" style="stop-color:#FF0000"/>
	</linearGradient>
	<path class="st2" d="M18,11.1c-5.1,0-9.3,4.6-9.3,10.3c0,1.5,0.3,2.9,0.8,4.2c0.1-0.2,0.1-0.3,0.2-0.5c0,0,0,0,0-0.1
		c0-0.1,0.1-0.1,0.2-0.2c0,0,0,0,0.1-0.1s0.2-0.1,0.3-0.1c0.1,0,0.3,0,0.4,0c0.1-0.6,0.2-1.2,0.3-1.9c0-0.3,0.1-0.6,0.1-1
		c-0.1-0.8,0.1-1.2,0.3-1.5c0.2-0.3,0.4-0.3,0.6-0.8c0.4-0.6,0.2-0.8,0.5-1.1c0.4-0.3,0.7-0.1,1.1-0.5c0.2-0.2,0.2-0.3,0.4-0.5
		c0.3-0.3,0.7-0.4,1-0.4c1.5-0.2,2.4-0.7,2.4-0.7s0.6,0.2,1.9,0.5c0.5,0.1,0.9,0.1,1.1,0.2c0.4,0.2,0.4,0.4,0.8,0.7
		c0.5,0.3,0.6,0.2,1.1,0.5c0.4,0.3,0.4,0.5,0.8,0.8c0.3,0.2,0.4,0.2,0.6,0.4c0.2,0.2,0.1,0.4,0.3,0.7c0.2,0.3,0.4,0.3,0.7,0.5
		c0.3,0.3,0.2,0.6,0.3,1.8c0.1,0.8,0.2,0.9,0.2,1.7c0,0.3,0,0.6,0,0.8c0.1,0,0.3,0,0.4,0.1c0.1,0,0.2,0.1,0.3,0.2c0,0,0,0,0.1,0
		c0.1,0.1,0.1,0.1,0.2,0.2c0.1,0.1,0.1,0.1,0.1,0.2c0,0.1,0,0.2,0.1,0.2c0.5-1.3,0.8-2.7,0.8-4.2C27.3,15.7,23.1,11.1,18,11.1z"/>
</g>
<g>
	
		<linearGradient id="SVGID_4_" gradientUnits="userSpaceOnUse" x1="6.1" y1="241.5" x2="29.9" y2="241.5" gradientTransform="matrix(1 0 0 1 0 -198)">
		<stop  offset="0" style="stop-color:#F0B4C8"/>
		<stop  offset="0.12" style="stop-color:#FFE1E6"/>
		<stop  offset="0.88" style="stop-color:#FFE1E6"/>
		<stop  offset="1" style="stop-color:#F0B4C8"/>
	</linearGradient>
	<path class="st3" d="M29.6,44.2c-0.1-3.6,0.1-4.7-0.7-5.8l-0.1-0.1c-1.4,2.3-5.7,4-10.8,4s-9.4-1.7-10.8-4l-0.1,0.1
		c-0.8,1.1-0.6,2.2-0.7,5.8c-0.1,2-0.2,3.5-0.3,4.5H18l0,0h11.9C29.8,47.8,29.7,46.2,29.6,44.2z"/>
</g>
<g>
	<g>
		<g>
			<g>
				<path class="st4" d="M26.6,41.7c1.4-0.8,2.9-0.9,4.3-0.4c0.1-0.1,0.2-0.3,0-0.5l-1.8-3c-0.9-1.6-3.1,2.3-3,2.5
					c0.1,0.1-0.5,0.4-0.5,0.3c-0.1-0.2-4.6-0.3-3.7,1.3l1.8,3c0.1,0.2,0.3,0.2,0.4,0.2C24.5,43.8,25.3,42.5,26.6,41.7z"/>
			</g>
			<path class="st5" d="M23.9,45.2c0.7,0.6,2.4-1.9,2.7-3.1c0-0.1,0-0.2,0.1-0.3C24.3,43.2,23.9,44.5,23.9,45.2z M26.7,41.7
				c0.1,0,0.2,0.1,0.3,0.1c1.3,0.3,4.5,0.1,3.9-0.9l0,0C30.2,40.6,28.9,40.6,26.7,41.7z"/>
			<path class="st6" d="M27.4,41.2c0.3,0.4,0.1,1-0.3,1.3l-0.4,0.2c-0.4,0.3-1,0.1-1.3-0.3L25,41.5c-0.3-0.4-0.1-1,0.3-1.3l0.4-0.2
				c0.4-0.3,1-0.1,1.3,0.3L27.4,41.2z"/>
		</g>
		<g>
			<g>
				<path class="st4" d="M9.3,41.7c-1.4-0.8-2.9-0.9-4.3-0.4c-0.1-0.1-0.1-0.3,0-0.5l1.8-3c0.9-1.6,3.1,2.3,3,2.5
					c-0.1,0.1,0.5,0.4,0.5,0.3c0.1-0.2,4.6-0.3,3.7,1.3l-1.8,3c-0.1,0.2-0.3,0.2-0.4,0.2C11.5,43.8,10.7,42.5,9.3,41.7z"/>
			</g>
			<path class="st5" d="M12.1,45.1c-0.7,0.6-2.4-1.9-2.7-3.1c0-0.1,0-0.2-0.1-0.3C11.7,43.2,12.1,44.5,12.1,45.1z M9.2,41.6
				c-0.1,0-0.2,0.1-0.3,0.1c-1.3,0.4-4.5,0.1-3.9-0.9l0,0C5.8,40.6,7,40.5,9.2,41.6z"/>
			<path class="st6" d="M8.5,41.2c-0.3,0.4-0.1,1,0.3,1.3l0.4,0.2c0.4,0.3,1,0.1,1.3-0.3l0.5-0.9c0.3-0.4,0.1-1-0.3-1.3L10.3,40
				c-0.4-0.3-1-0.1-1.3,0.3L8.5,41.2z"/>
		</g>
		<g>
			<g>
				<path class="st4" d="M17.9,43.9c1.6,0,2.9,0.7,3.9,1.8c0.2-0.1,0.3-0.2,0.3-0.4v-3.5c0-1.9-3.8,0.5-3.8,0.7c0,0.1-0.6,0.1-0.6,0
					c0-0.2-3.9-2.6-3.9-0.7v3.5c0,0.2,0.1,0.3,0.3,0.4C15.1,44.6,16.4,43.9,17.9,43.9z"/>
			</g>
			<path class="st5" d="M13.9,45.5c0.3,0.8,3-0.5,3.9-1.3c0.1-0.1,0.1-0.2,0.2-0.2C15.2,44,14.1,44.9,13.9,45.5z M18.1,43.9
				c0.1,0.1,0.1,0.2,0.2,0.2c0.9,0.9,3.8,2.3,3.8,1.2v-0.1C21.6,44.7,20.5,44,18.1,43.9z"/>
			<path class="st6" d="M18.9,43.8c0,0.5-0.4,0.9-0.9,0.9h-0.5c-0.5,0-0.9-0.4-0.9-0.9v-1c0-0.5,0.4-0.9,0.9-0.9H18
				c0.5,0,0.9,0.4,0.9,0.9V43.8z"/>
		</g>
	</g>
</g>
<g>
	
		<radialGradient id="SVGID_5_" cx="0.8854" cy="265.2914" r="4.0339" gradientTransform="matrix(0.9317 7.108033e-02 -5.163803e-02 0.5679 28.8909 -136.245)" gradientUnits="userSpaceOnUse">
		<stop  offset="0.75" style="stop-color:#FF9696"/>
		<stop  offset="1" style="stop-color:#FF3232"/>
	</radialGradient>
	<path class="st7" d="M12.4,14.4c0.6,0.2,1.4,0.3,2.4,0.5c2.7,0.2,4.7-0.3,4.7-0.3c0-0.1-2,0.4-4.7-0.1c-0.8-0.2-1.4-0.4-1.8-0.5
		C13,14,12.9,14,12.8,14.1C12.7,14.2,12.5,14.3,12.4,14.4z"/>
	
		<radialGradient id="SVGID_6_" cx="-527.7728" cy="703.7199" r="4.0339" gradientTransform="matrix(-0.4137 4.368694e-02 4.088517e-02 0.3066 -225.227 -178.3177)" gradientUnits="userSpaceOnUse">
		<stop  offset="0.75" style="stop-color:#FF9696"/>
		<stop  offset="1" style="stop-color:#FF3232"/>
	</radialGradient>
	<path class="st8" d="M23.4,14.3c-0.3,0.1-0.6,0.2-1,0.2c-1.2,0.1-2.1-0.1-2.1-0.1s0.9,0.2,2.1-0.1c0.4-0.1,0.6-0.2,0.8-0.3l0.1,0.1
		C23.4,14.2,23.4,14.3,23.4,14.3z"/>
</g>
<g>
	<g>
		<g>
			
				<radialGradient id="SVGID_7_" cx="30.3122" cy="224.1136" r="10.0256" gradientTransform="matrix(1 0 0 2 -22.3602 -422.1136)" gradientUnits="userSpaceOnUse">
				<stop  offset="0" style="stop-color:#C80000"/>
				<stop  offset="0.5677" style="stop-color:#FF0000"/>
			</radialGradient>
			<path class="st9" d="M9.2,19.9c0.3-1.3,0.6-1.8,1.5-4.4c0.6-1.7,0.1-0.6,0.5-1.7c0.3-0.8,0.3-1,0.3-1.1c-0.3-0.4-1.8-0.3-2.9,0.3
				c-2.6,1.5-2.8,5.9-2.9,8.4c0,1.4,0.7,2.2,0.2,4.4c-0.2,0.8-0.3,1.2-0.4,1.6c-0.6,2-0.8,2-0.8,2.6c-0.1,1.8,1.3,2.3,1.1,3.7
				c-0.2,1.3-1,1.7-1.2,2.7c-0.4,1.7,2.1,4.4,2.7,3.1c-0.4,0.8-2.2-1.3-0.4-2.4C8,36.3,10,36,10.7,34.9c0.5-0.9-0.3-2.3-1-3
				c-1.6-1.5,0.7-2.9,0.5-5.2C10,25.1,9,25.1,8.8,22.9C8.7,21.9,8.9,21.1,9.2,19.9z"/>
			
				<radialGradient id="SVGID_8_" cx="-499.5775" cy="699.6216" r="3.8369" gradientTransform="matrix(0.3194 0 1.763588e-02 0.639 156.5197 -432.9876)" gradientUnits="userSpaceOnUse">
				<stop  offset="0" style="stop-color:#C80000"/>
				<stop  offset="0.5677" style="stop-color:#FF0000"/>
			</radialGradient>
			<path class="st10" d="M7.6,14c0.3,0.1,0.7,0.3,1.1,0.3C10,14.4,11,14,11,14s-1,0.3-2.3,0c-0.4-0.1-0.7-0.3-0.9-0.4l-0.1,0.1
				C7.6,13.9,7.6,14,7.6,14z"/>
		</g>
	</g>
	<g>
		<g>
			
				<radialGradient id="SVGID_9_" cx="41.9074" cy="224.1136" r="10.0256" gradientTransform="matrix(1 0 0 -2 -13.8595 474.3409)" gradientUnits="userSpaceOnUse">
				<stop  offset="0" style="stop-color:#C80000"/>
				<stop  offset="0.5677" style="stop-color:#FF0000"/>
			</radialGradient>
			<path class="st11" d="M26.8,19.9c-0.3-1.3-0.6-1.8-1.5-4.4c-0.6-1.7-0.1-0.6-0.5-1.7c-0.3-0.8-0.3-1-0.3-1.1
				c0.3-0.4,1.8-0.3,2.9,0.3c2.6,1.5,2.8,5.9,2.9,8.4c0,1.4-0.7,2.2-0.2,4.4c0.2,0.8,0.3,1.2,0.4,1.6c0.6,2,0.8,2,0.8,2.6
				c0.1,1.8-1.3,2.3-1.1,3.7c0.2,1.3,1,1.7,1.2,2.7c0.4,1.7-2.1,4.4-2.7,3.1c0.4,0.8,2.2-1.3,0.4-2.4C28,36.3,26,36,25.3,34.9
				c-0.5-0.9,0.3-2.3,1-3c1.6-1.5-0.7-2.9-0.5-5.2c0.2-1.6,1.1-1.6,1.4-3.7C27.3,21.9,27.1,21.1,26.8,19.9z"/>
			
				<radialGradient id="SVGID_10_" cx="-463.4703" cy="695.8161" r="3.8369" gradientTransform="matrix(0.3194 0 1.763588e-02 -0.639 162.4336 458.6367)" gradientUnits="userSpaceOnUse">
				<stop  offset="0" style="stop-color:#C80000"/>
				<stop  offset="0.5677" style="stop-color:#FF0000"/>
			</radialGradient>
			<path class="st12" d="M28.4,14c-0.3,0.1-0.7,0.3-1.1,0.3C26,14.4,25,14,25,14s1,0.3,2.3,0c0.4-0.1,0.7-0.3,0.9-0.4l0.1,0.1
				C28.4,13.9,28.4,14,28.4,14z"/>
		</g>
	</g>
</g>
<g>
	<g>
		<g>
			<linearGradient id="SVGID_11_" gradientUnits="userSpaceOnUse" x1="8.2251" y1="16.8587" x2="13.62" y2="10.4293">
				<stop  offset="0" style="stop-color:#F0B4C8"/>
				<stop  offset="0.3" style="stop-color:#FFE1E6"/>
				<stop  offset="0.5" style="stop-color:#FAB4C8"/>
				<stop  offset="0.7" style="stop-color:#FFE1E6"/>
				<stop  offset="1" style="stop-color:#F0B4C8"/>
			</linearGradient>
			<path class="st13" d="M10.5,13.3c-1,1.2-2.4,1.9-3.9,1.9c-0.1,0.1-0.1,0.4,0.2,0.5l2.7,2.2c1.4,1.2,2.1-3.2,1.9-3.4
				c-0.1-0.1,0.3-0.5,0.4-0.5c0.2,0.2,4.4-1.3,3-2.5l-2.7-2.2c-0.2-0.2-0.4-0.1-0.4,0C11.7,10.6,11.4,12.1,10.5,13.3z"/>
		</g>
		<path class="st14" d="M11.8,9.1c-0.9-0.3-1.6,2.6-1.4,3.8c0,0.1,0.1,0.2,0,0.3C12.1,11.1,12.1,9.7,11.8,9.1z M10.4,13.3
			c-0.1,0-0.2,0-0.3,0c-1.3,0.2-4.2,1.5-3.3,2.2l0,0C7.5,15.6,8.7,15.1,10.4,13.3z"/>
		<linearGradient id="SVGID_12_" gradientUnits="userSpaceOnUse" x1="10.2236" y1="14.4026" x2="11.7833" y2="12.5438">
			<stop  offset="0" style="stop-color:#F0B4C8"/>
			<stop  offset="0.3" style="stop-color:#FFE1E6"/>
			<stop  offset="0.7" style="stop-color:#FFE1E6"/>
			<stop  offset="1" style="stop-color:#F0B4C8"/>
		</linearGradient>
		<path class="st15" d="M9.9,14c-0.4-0.3-0.4-0.9-0.2-1.3l0.3-0.3c0.3-0.4,0.9-0.4,1.3-0.2l0.7,0.7c0.4,0.3,0.4,0.9,0.2,1.3
			l-0.3,0.3C11.7,15,11,15,10.6,14.7L9.9,14z"/>
	</g>
	<g>
		<g>
			
				<linearGradient id="SVGID_13_" gradientUnits="userSpaceOnUse" x1="20.0251" y1="16.8587" x2="25.42" y2="10.4293" gradientTransform="matrix(-1 0 0 1 47.8 0)">
				<stop  offset="0" style="stop-color:#F0B4C8"/>
				<stop  offset="0.3" style="stop-color:#FFE1E6"/>
				<stop  offset="0.5" style="stop-color:#FAB4C8"/>
				<stop  offset="0.7" style="stop-color:#FFE1E6"/>
				<stop  offset="1" style="stop-color:#F0B4C8"/>
			</linearGradient>
			<path class="st16" d="M25.5,13.3c1,1.2,2.4,1.9,3.9,1.9c0.1,0.1,0.1,0.4-0.2,0.5l-2.7,2.2c-1.4,1.2-2.1-3.2-1.9-3.4
				c0.1-0.1-0.3-0.5-0.4-0.5c-0.2,0.2-4.4-1.3-3-2.5l2.7-2.2c0.2-0.2,0.4-0.1,0.4,0C24.3,10.6,24.6,12.1,25.5,13.3z"/>
		</g>
		<path class="st14" d="M24.2,9.1c0.9-0.3,1.6,2.6,1.4,3.8c0,0.1-0.1,0.2,0,0.3C23.9,11.1,23.9,9.7,24.2,9.1z M25.6,13.3
			c0.1,0,0.2,0,0.3,0c1.3,0.2,4.2,1.5,3.3,2.2l0,0C28.5,15.6,27.3,15.1,25.6,13.3z"/>
		
			<linearGradient id="SVGID_14_" gradientUnits="userSpaceOnUse" x1="22.0236" y1="14.4026" x2="23.5833" y2="12.5438" gradientTransform="matrix(-1 0 0 1 47.8 0)">
			<stop  offset="0" style="stop-color:#F0B4C8"/>
			<stop  offset="0.3" style="stop-color:#FFE1E6"/>
			<stop  offset="0.7" style="stop-color:#FFE1E6"/>
			<stop  offset="1" style="stop-color:#F0B4C8"/>
		</linearGradient>
		<path class="st17" d="M26.1,14c0.4-0.3,0.4-0.9,0.2-1.3l-0.3-0.3c-0.3-0.4-0.9-0.4-1.3-0.2l-0.7,0.7c-0.4,0.3-0.4,0.9-0.2,1.3
			l0.3,0.3c0.3,0.4,0.9,0.4,1.3,0.2L26.1,14z"/>
	</g>
</g>
<g>
	
		<radialGradient id="SVGID_15_" cx="-138.8429" cy="-817.4381" r="0.881" gradientTransform="matrix(0.7726 -1.2699 -0.1821 2.652420e-02 -25.352 -136.8435)" gradientUnits="userSpaceOnUse">
		<stop  offset="0.5" style="stop-color:#C80000"/>
		<stop  offset="1" style="stop-color:#FF0000"/>
	</radialGradient>
	<path class="st18" d="M17.4,16.3c0,0.1-0.7-0.1-1.3,1.6c-0.6,1.4-0.9,1.2-0.8,1.5c0.1-0.3,0.3,0.1,1-1.6
		C16.9,16,17.4,16.5,17.4,16.3z"/>
	<path class="st19" d="M17.4,16.3c0,0.1-0.7-0.1-1.3,1.6c-0.6,1.4-0.9,1.2-0.8,1.5c0.1-0.3,0.3,0.1,1-1.6
		C16.9,16,17.4,16.5,17.4,16.3z"/>
</g>
<g>
	
		<radialGradient id="SVGID_16_" cx="-139.5119" cy="-849.4672" r="0.881" gradientTransform="matrix(-0.7371 -1.2699 0.1737 2.652420e-02 63.367 -136.8435)" gradientUnits="userSpaceOnUse">
		<stop  offset="0.5" style="stop-color:#C80000"/>
		<stop  offset="1" style="stop-color:#FF0000"/>
	</radialGradient>
	<path class="st20" d="M17.5,16.3c0,0.1,0.7-0.1,1.2,1.6c0.6,1.4,0.8,1.2,0.8,1.5c0-0.3-0.3,0.1-0.9-1.6C18,16,17.5,16.5,17.5,16.3z
		"/>
	<path class="st21" d="M17.5,16.3c0,0.1,0.7-0.1,1.2,1.6c0.6,1.4,0.8,1.2,0.8,1.5c0-0.3-0.3,0.1-0.9-1.6C18,16,17.5,16.5,17.5,16.3z
		"/>
</g>
</svg>
