<?xml version="1.0" encoding="utf-8"?>
<!-- Generator: Adobe Illustrator 22.0.1, SVG Export Plug-In . SVG Version: 6.00 Build 0)  -->
<svg version="1.1" id="레이어_1" xmlns="http://www.w3.org/2000/svg" xmlns:xlink="http://www.w3.org/1999/xlink" x="0px"
	 y="0px" viewBox="0 0 36 56.7" style="enable-background:new 0 0 36 56.7;" xml:space="preserve">
<style type="text/css">
	.st0{fill:url(#SVGID_1_);}
	.st1{fill:url(#SVGID_2_);}
	.st2{fill:#FF3296;}
	.st3{fill:#C80000;}
	.st4{fill:#FF6464;}
	.st5{fill:#FF0000;}
	.st6{fill:#FF3264;}
</style>
<g>
	
		<linearGradient id="SVGID_1_" gradientUnits="userSpaceOnUse" x1="21.7695" y1="-361.903" x2="21.7695" y2="-358.3578" gradientTransform="matrix(1 0 0 -1 0 -335.3543)">
		<stop  offset="0" style="stop-color:#FF7896"/>
		<stop  offset="0.5" style="stop-color:#FF0000"/>
		<stop  offset="1" style="stop-color:#C80000"/>
	</linearGradient>
	<path class="st0" d="M21.9,23c-0.7,0-1.3,0.4-1.3,1.1c0,0.4,0,0.8-0.1,1.2c0,0.1,0,0.2,0,0.3l0.1-0.1c0.1,0,0.1,0.1,0.1,0.1
		l-0.1,0.1c0,0,0,0-0.1,0c0.2,0.4,0.5,0.7,1.1,0.7c0.7,0,1.3-0.6,1.3-1.1c0-0.4,0.1-0.8,0.1-1.1C23.2,23.6,22.6,23,21.9,23z
		 M22,23.9c0,0-0.1,0.1-0.2,0.1l0.1,0.1c0,0.1-0.1,0.2-0.2,0.2s-0.2-0.1-0.2-0.2s0-0.1,0.1-0.2h-0.1c-0.1-0.1-0.1-0.4,0-0.5
		s0.4-0.1,0.5,0S22.1,23.8,22,23.9z"/>
	
		<linearGradient id="SVGID_2_" gradientUnits="userSpaceOnUse" x1="14.1945" y1="-361.903" x2="14.1945" y2="-358.3583" gradientTransform="matrix(1 0 0 -1 0 -335.3543)">
		<stop  offset="0" style="stop-color:#FF7896"/>
		<stop  offset="0.5" style="stop-color:#FF0000"/>
		<stop  offset="1" style="stop-color:#C80000"/>
	</linearGradient>
	<path class="st1" d="M14.1,23c-0.7,0-1.3,0.5-1.2,1.2c0,0.4,0.1,0.8,0.1,1.1c0,0.1,0,0.2,0.1,0.3h0.1c0.1,0,0.1,0.1,0.1,0.1
		l-0.1,0.1l0,0c0.2,0.4,0.6,0.7,1.1,0.7c0.6,0,1.1-0.6,1.2-1.2c0-0.4,0-0.8-0.1-1.2C15.4,23.5,14.8,22.9,14.1,23z M14.4,23.9
		c0,0-0.1,0.1-0.2,0.1l0.1,0.1c0,0.1-0.1,0.2-0.2,0.2c-0.1,0-0.2-0.1-0.2-0.2s0-0.1,0.1-0.2h-0.1c-0.1-0.1-0.1-0.4,0-0.5
		s0.4-0.1,0.5,0S14.6,23.8,14.4,23.9z"/>
</g>
<g>
	<polygon class="st2" points="18,38.3 18.9,38.8 18.9,40.1 18,40.6 17.1,40.1 17.1,38.8 	"/>
	<polygon class="st3" points="18,39.5 18.9,40.1 18,40.6 	"/>
	<polygon class="st4" points="18,39.5 17.1,38.8 18,38.3 	"/>
	<polygon class="st5" points="18,39.5 18.9,38.8 18,38.3 	"/>
	<polygon class="st6" points="18,39.5 18.9,40.1 18.9,38.8 	"/>
	<polygon class="st6" points="18,39.5 17.1,40.1 17.1,38.8 	"/>
</g>
</svg>
