<?xml version="1.0" encoding="utf-8"?>
<!-- Generator: Adobe Illustrator 22.0.1, SVG Export Plug-In . SVG Version: 6.00 Build 0)  -->
<svg version="1.1" id="레이어_1" xmlns="http://www.w3.org/2000/svg" xmlns:xlink="http://www.w3.org/1999/xlink" x="0px"
	 y="0px" viewBox="0 0 36 56.7" style="enable-background:new 0 0 36 56.7;" xml:space="preserve">
<style type="text/css">
	.st0{fill:#C80000;}
</style>
<g>
	<g>
		<path class="st0" d="M19.9,23c0-0.1,1.5-0.9,2.9-0.5c1.5,0.5,2.4,2.1,2.3,2.3c-0.1,0.1-0.9-0.9-2.5-1.5
			C20.9,22.7,19.9,23.1,19.9,23z"/>
		<path class="st0" d="M16.2,23c0-0.1-1.5-0.9-2.9-0.5c-1.5,0.5-2.4,2.1-2.3,2.3c0.1,0.1,0.9-0.9,2.5-1.5
			C15.1,22.7,16.2,23.1,16.2,23z"/>
		<path class="st0" d="M12.1,23.9c0,0-0.6,0.3-1.3,0.1c-0.7-0.2-0.9-0.7-0.9-0.9c0,0,0.5,0.5,1.1,0.7C11.7,24,12.1,23.9,12.1,23.9z"
			/>
		<path class="st0" d="M23.9,23.9c0,0,0.6,0.3,1.3,0.1c0.7-0.2,0.9-0.7,0.9-0.9c0,0-0.5,0.5-1.1,0.7C24.3,24,23.9,23.9,23.9,23.9z"
			/>
	</g>
</g>
</svg>
