<?xml version="1.0" encoding="utf-8"?>
<!-- Generator: Adobe Illustrator 22.0.1, SVG Export Plug-In . SVG Version: 6.00 Build 0)  -->
<svg version="1.1" id="레이어_1" xmlns="http://www.w3.org/2000/svg" xmlns:xlink="http://www.w3.org/1999/xlink" x="0px"
	 y="0px" viewBox="0 0 36 56.7" style="enable-background:new 0 0 36 56.7;" xml:space="preserve">
<style type="text/css">
	.st0{fill:url(#SVGID_1_);stroke:#E6879B;stroke-width:0.1;stroke-linecap:round;stroke-linejoin:round;stroke-miterlimit:10;}
	.st1{fill:url(#SVGID_2_);stroke:#E6879B;stroke-width:0.1;stroke-linecap:round;stroke-linejoin:round;stroke-miterlimit:10;}
	.st2{fill:url(#SVGID_3_);stroke:#E6879B;stroke-width:0.1;stroke-linecap:round;stroke-linejoin:round;stroke-miterlimit:10;}
	.st3{fill:#E6879B;stroke:#E6879B;stroke-width:0.1;stroke-linecap:round;stroke-linejoin:round;stroke-miterlimit:10;}
	.st4{fill:url(#SVGID_4_);}
	.st5{fill:url(#SVGID_5_);stroke:#C80000;stroke-width:0.1;stroke-miterlimit:10;}
	.st6{fill:url(#SVGID_6_);stroke:#C80000;stroke-width:0.1;stroke-miterlimit:10;}
	.st7{fill:url(#SVGID_7_);stroke:#C80000;stroke-width:0.1;stroke-miterlimit:10;}
	.st8{fill:url(#SVGID_8_);stroke:#C80000;stroke-width:0.1;stroke-miterlimit:10;}
	.st9{fill:url(#SVGID_9_);stroke:#E6879B;stroke-width:0.1085;stroke-miterlimit:10;}
	.st10{fill:#DD2E44;}
	.st11{fill:#A0041E;}
	.st12{fill:#EA596E;}
	.st13{fill:url(#SVGID_10_);}
	.st14{fill:url(#SVGID_11_);}
</style>
<g>
	
		<linearGradient id="SVGID_1_" gradientUnits="userSpaceOnUse" x1="10.5583" y1="34.8947" x2="17.0625" y2="34.8947" gradientTransform="matrix(1 4.011123e-03 -4.011123e-03 1 0.1409 3.134497e-02)">
		<stop  offset="0" style="stop-color:#F0B4C8"/>
		<stop  offset="0.3" style="stop-color:#FFE1E6"/>
		<stop  offset="0.7" style="stop-color:#FFE1E6"/>
		<stop  offset="1" style="stop-color:#F0B4C8"/>
	</linearGradient>
	<path class="st0" d="M14.2,33.9c-0.1,0-0.1,0-0.1,0c-0.4,0.7-0.8,1.4-1.3,2.2c0.8-0.1,1.6-0.2,2.5-0.4
		C14.8,35.2,14.4,34.5,14.2,33.9z"/>
</g>
<g>
	
		<linearGradient id="SVGID_2_" gradientUnits="userSpaceOnUse" x1="11.306" y1="32.4946" x2="23.4801" y2="32.4946" gradientTransform="matrix(-0.9986 -5.305037e-02 5.305037e-02 -0.9986 32.4679 64.7528)">
		<stop  offset="0" style="stop-color:#F0B4C8"/>
		<stop  offset="0.3" style="stop-color:#FFE1E6"/>
		<stop  offset="0.5" style="stop-color:#FAB4C8"/>
		<stop  offset="0.7" style="stop-color:#FFE1E6"/>
		<stop  offset="1" style="stop-color:#F0B4C8"/>
	</linearGradient>
	<path class="st1" d="M11.9,29.1c-0.1-0.1-0.2-0.3-0.2-0.4c-0.3-0.2-0.6-0.5-0.8-0.7l-0.3,5c-0.1,2,2.9,0.9,4.6,0v-1.5
		C14,31,12.7,30.3,11.9,29.1z"/>
	
		<linearGradient id="SVGID_3_" gradientUnits="userSpaceOnUse" x1="11.3059" y1="31.6543" x2="23.4801" y2="31.6543" gradientTransform="matrix(-0.9986 -5.305037e-02 5.305037e-02 -0.9986 32.4679 64.7528)">
		<stop  offset="0" style="stop-color:#F0B4C8"/>
		<stop  offset="0.3" style="stop-color:#FFE1E6"/>
		<stop  offset="0.5" style="stop-color:#FAB4C8"/>
		<stop  offset="0.7" style="stop-color:#FFE1E6"/>
		<stop  offset="1" style="stop-color:#F0B4C8"/>
	</linearGradient>
	<path class="st2" d="M22.8,33.7l0.2-3.3c-0.7,0.5-1.4,0.9-2.2,1.2v2.9C21.9,34.8,22.7,34.8,22.8,33.7z"/>
	<polygon class="st3" points="10.9,28 10.9,28 10.9,27.9 	"/>
	
		<radialGradient id="SVGID_4_" cx="17.75" cy="233.6493" r="11.8357" gradientTransform="matrix(1 0 0 1 0 -198)" gradientUnits="userSpaceOnUse">
		<stop  offset="0.5" style="stop-color:#C80000"/>
		<stop  offset="1" style="stop-color:#FF0000"/>
	</radialGradient>
	<polygon class="st4" points="10.9,28 10.9,28 10.9,27.9 	"/>
</g>
<g>
	<linearGradient id="SVGID_5_" gradientUnits="userSpaceOnUse" x1="24.7248" y1="29.1112" x2="24.7248" y2="27.7809">
		<stop  offset="0" style="stop-color:#C80000"/>
		<stop  offset="1" style="stop-color:#FF0000"/>
	</linearGradient>
	<path class="st5" d="M24.6,27.8c-0.1,0.6-0.2,1-0.4,1.3c0.4-0.4,0.8-0.9,1.1-1.3C25.1,27.8,24.8,27.9,24.6,27.8z"/>
	<linearGradient id="SVGID_6_" gradientUnits="userSpaceOnUse" x1="11.3844" y1="29.3631" x2="11.3844" y2="27.6641">
		<stop  offset="0" style="stop-color:#C80000"/>
		<stop  offset="1" style="stop-color:#FF0000"/>
	</linearGradient>
	<path class="st6" d="M11.4,27.7c-0.2,0.1-0.5,0-0.8,0c0.4,0.6,0.9,1.2,1.5,1.7c-0.1-0.1-0.2-0.2-0.2-0.3
		C11.6,28.7,11.5,28.4,11.4,27.7z"/>
	<linearGradient id="SVGID_7_" gradientUnits="userSpaceOnUse" x1="18" y1="25.6286" x2="18" y2="11.107">
		<stop  offset="0" style="stop-color:#C80000"/>
		<stop  offset="1" style="stop-color:#FF0000"/>
	</linearGradient>
	<path class="st7" d="M18,11.1c-5.1,0-9.3,4.6-9.3,10.3c0,1.5,0.3,2.9,0.8,4.2c0.1-0.2,0.1-0.3,0.2-0.5c0,0,0,0,0-0.1
		c0-0.1,0.1-0.1,0.2-0.2c0,0,0,0,0.1-0.1s0.2-0.1,0.3-0.1c0.1,0,0.3,0,0.4,0c0-0.2,0-0.6,0-1c0,0,0,0,0,0c0.1-0.6,0.1-1.1,0.1-1.1
		c0.1-0.9,1.1-2.6,1.1-2.6c0.5-0.9,1.3-2.1,2.3-3.5c1,0.4,2.4,0.9,4,1.7c0.6,0.3,1.6,0.8,3,1.6c0,0,3.5,1.9,4.1,3.8
		c0.1,0.2,0.2,0.6,0.1,0.8c0,0,0,0.1,0,0.2c0,0.1,0,0.2-0.1,0.2c0.1,0,0.3,0,0.4,0.1c0.1,0,0.2,0.1,0.3,0.2c0,0,0,0,0.1,0
		c0.1,0.1,0.1,0.1,0.2,0.2c0.1,0.1,0.1,0.1,0.1,0.2c0,0.1,0,0.2,0.1,0.2c0.5-1.3,0.8-2.7,0.8-4.2C27.3,15.7,23.1,11.1,18,11.1z"/>
	<linearGradient id="SVGID_8_" gradientUnits="userSpaceOnUse" x1="14.4553" y1="35.9458" x2="14.4553" y2="31.0105">
		<stop  offset="0" style="stop-color:#C80000"/>
		<stop  offset="1" style="stop-color:#FF0000"/>
	</linearGradient>
	<path class="st8" d="M13.7,35.9c0.5-0.1,1-0.1,1.5-0.2v-4.2c-0.3-0.1-0.7-0.3-1-0.5C14,32.7,13.8,34.3,13.7,35.9z"/>
</g>
<g>
	
		<linearGradient id="SVGID_9_" gradientUnits="userSpaceOnUse" x1="6.1" y1="241.5" x2="29.9" y2="241.5" gradientTransform="matrix(1 0 0 1 0 -198)">
		<stop  offset="0" style="stop-color:#F0B4C8"/>
		<stop  offset="0.12" style="stop-color:#FFE1E6"/>
		<stop  offset="0.88" style="stop-color:#FFE1E6"/>
		<stop  offset="1" style="stop-color:#F0B4C8"/>
	</linearGradient>
	<path class="st9" d="M29.6,44.2c-0.1-3.6,0.1-4.7-0.7-5.8l-0.1-0.1c-1.4,2.3-5.7,4-10.8,4s-9.4-1.7-10.8-4l-0.1,0.1
		c-0.8,1.1-0.6,2.2-0.7,5.8c-0.1,2-0.2,3.5-0.3,4.5H18l0,0h11.9C29.8,47.8,29.7,46.2,29.6,44.2z"/>
</g>
<g>
	<g>
		<g>
			<g>
				<path class="st10" d="M26.6,41.7c1.4-0.8,2.9-0.9,4.3-0.4c0.1-0.1,0.2-0.3,0-0.5l-1.8-3c-0.9-1.6-3.1,2.3-3,2.5
					c0.1,0.1-0.5,0.4-0.5,0.3c-0.1-0.2-4.6-0.3-3.7,1.3l1.8,3c0.1,0.2,0.3,0.2,0.4,0.2C24.5,43.8,25.3,42.5,26.6,41.7z"/>
			</g>
			<path class="st11" d="M23.9,45.2c0.7,0.6,2.4-1.9,2.7-3.1c0-0.1,0-0.2,0.1-0.3C24.3,43.2,23.9,44.5,23.9,45.2z M26.7,41.7
				c0.1,0,0.2,0.1,0.3,0.1c1.3,0.3,4.5,0.1,3.9-0.9l0,0C30.2,40.6,28.9,40.6,26.7,41.7z"/>
			<path class="st12" d="M27.4,41.2c0.3,0.4,0.1,1-0.3,1.3l-0.4,0.2c-0.4,0.3-1,0.1-1.3-0.3L25,41.5c-0.3-0.4-0.1-1,0.3-1.3l0.4-0.2
				c0.4-0.3,1-0.1,1.3,0.3L27.4,41.2z"/>
		</g>
		<g>
			<g>
				<path class="st10" d="M9.3,41.7c-1.4-0.8-2.9-0.9-4.3-0.4c-0.1-0.1-0.1-0.3,0-0.5l1.8-3c0.9-1.6,3.1,2.3,3,2.5
					c-0.1,0.1,0.5,0.4,0.5,0.3c0.1-0.2,4.6-0.3,3.7,1.3l-1.8,3c-0.1,0.2-0.3,0.2-0.4,0.2C11.5,43.8,10.7,42.5,9.3,41.7z"/>
			</g>
			<path class="st11" d="M12.1,45.1c-0.7,0.6-2.4-1.9-2.7-3.1c0-0.1,0-0.2-0.1-0.3C11.7,43.2,12.1,44.5,12.1,45.1z M9.2,41.6
				c-0.1,0-0.2,0.1-0.3,0.1c-1.3,0.4-4.5,0.1-3.9-0.9l0,0C5.8,40.6,7,40.5,9.2,41.6z"/>
			<path class="st12" d="M8.5,41.2c-0.3,0.4-0.1,1,0.3,1.3l0.4,0.2c0.4,0.3,1,0.1,1.3-0.3l0.5-0.9c0.3-0.4,0.1-1-0.3-1.3L10.3,40
				c-0.4-0.3-1-0.1-1.3,0.3L8.5,41.2z"/>
		</g>
		<g>
			<g>
				<path class="st10" d="M17.9,43.9c1.6,0,2.9,0.7,3.9,1.8c0.2-0.1,0.3-0.2,0.3-0.4v-3.5c0-1.9-3.8,0.5-3.8,0.7
					c0,0.1-0.6,0.1-0.6,0c0-0.2-3.9-2.6-3.9-0.7v3.5c0,0.2,0.1,0.3,0.3,0.4C15.1,44.6,16.4,43.9,17.9,43.9z"/>
			</g>
			<path class="st11" d="M13.9,45.5c0.3,0.8,3-0.5,3.9-1.3c0.1-0.1,0.1-0.2,0.2-0.2C15.2,44,14.1,44.9,13.9,45.5z M18.1,43.9
				c0.1,0.1,0.1,0.2,0.2,0.2c0.9,0.9,3.8,2.3,3.8,1.2v-0.1C21.6,44.7,20.5,44,18.1,43.9z"/>
			<path class="st12" d="M18.9,43.8c0,0.5-0.4,0.9-0.9,0.9h-0.5c-0.5,0-0.9-0.4-0.9-0.9v-1c0-0.5,0.4-0.9,0.9-0.9H18
				c0.5,0,0.9,0.4,0.9,0.9V43.8z"/>
		</g>
	</g>
</g>
<g>
	
		<radialGradient id="SVGID_10_" cx="1.6493" cy="264.3359" r="4.0339" gradientTransform="matrix(1.23 9.277342e-02 -6.816901e-02 0.7412 32.3305 -182.0793)" gradientUnits="userSpaceOnUse">
		<stop  offset="0.75" style="stop-color:#FF9696"/>
		<stop  offset="1" style="stop-color:#FF3232"/>
	</radialGradient>
	<path class="st13" d="M11.6,13.9c0.8,0.2,1.9,0.4,3.2,0.6c3.5,0.3,6.2-0.4,6.2-0.4c0-0.1-2.7,0.5-6.2-0.1c-1.1-0.2-1.8-0.5-2.4-0.7
		c-0.1,0.1-0.2,0.1-0.3,0.2C11.9,13.7,11.7,13.8,11.6,13.9z"/>
	
		<radialGradient id="SVGID_11_" cx="-525.8134" cy="701.6956" r="4.0339" gradientTransform="matrix(-0.3185 3.241935e-02 2.498376e-02 0.3076 -162.1055 -184.9673)" gradientUnits="userSpaceOnUse">
		<stop  offset="0.75" style="stop-color:#FF9696"/>
		<stop  offset="1" style="stop-color:#FF3232"/>
	</radialGradient>
	<path class="st14" d="M24.1,13.8c-0.2,0.1-0.5,0.2-0.8,0.2c-0.9,0.1-1.6-0.2-1.6-0.2s0.7,0.2,1.6,0c0.3-0.1,0.5-0.2,0.6-0.3
		l0.1,0.1C24.1,13.7,24.1,13.8,24.1,13.8z"/>
</g>
</svg>
