<?xml version="1.0" encoding="utf-8"?>
<!-- Generator: Adobe Illustrator 22.0.1, SVG Export Plug-In . SVG Version: 6.00 Build 0)  -->
<svg version="1.1" id="레이어_1" xmlns="http://www.w3.org/2000/svg" xmlns:xlink="http://www.w3.org/1999/xlink" x="0px"
	 y="0px" viewBox="0 0 36 56.7" style="enable-background:new 0 0 36 56.7;" xml:space="preserve">
<style type="text/css">
	.st0{fill:url(#SVGID_1_);}
	.st1{fill:url(#SVGID_2_);stroke:#EBC8C8;stroke-width:0.1119;stroke-miterlimit:10;}
	.st2{fill:url(#SVGID_3_);stroke:#EBC8C8;stroke-width:0.1119;stroke-miterlimit:10;}
	.st3{fill:url(#SVGID_4_);}
	.st4{fill:none;stroke:#EBC8C8;stroke-width:0.1324;stroke-linecap:round;stroke-linejoin:round;stroke-miterlimit:10;}
	.st5{fill:url(#SVGID_5_);}
	.st6{fill:none;stroke:#EBC8C8;stroke-width:0.1259;stroke-miterlimit:10;}
	.st7{fill:url(#SVGID_6_);}
	.st8{fill:url(#SVGID_7_);stroke:#EBC8C8;stroke-width:0.1107;stroke-miterlimit:10;}
	.st9{fill:#EBC8C8;}
	.st10{fill:url(#SVGID_8_);}
	.st11{fill:url(#SVGID_9_);}
	.st12{fill:none;stroke:#FFC763;stroke-width:0.1789;stroke-linecap:round;stroke-linejoin:round;stroke-miterlimit:10;}
	.st13{fill:url(#SVGID_10_);}
	.st14{fill:url(#SVGID_11_);}
	.st15{fill:url(#SVGID_12_);}
	.st16{fill:url(#SVGID_13_);}
	.st17{fill:url(#SVGID_14_);}
	.st18{fill:url(#SVGID_15_);}
	.st19{fill:url(#SVGID_16_);}
	.st20{fill:url(#SVGID_17_);}
	.st21{fill:none;}
	.st22{fill:url(#SVGID_18_);}
	.st23{fill:url(#SVGID_19_);}
</style>
<radialGradient id="SVGID_1_" cx="18.05" cy="292.2177" r="17.696" gradientTransform="matrix(1 0 0 1.5 0 -410.0265)" gradientUnits="userSpaceOnUse">
	<stop  offset="0.1798" style="stop-color:#F5EFE3"/>
	<stop  offset="0.5899" style="stop-color:#EAD692"/>
	<stop  offset="1" style="stop-color:#B48426"/>
</radialGradient>
<rect x="4" y="7.6" class="st0" width="28.1" height="41.4"/>
<g id="레이어_2_1_">
</g>
<g id="레이어_2_2_">
</g>
<g>
	
		<linearGradient id="SVGID_2_" gradientUnits="userSpaceOnUse" x1="6.1" y1="239.75" x2="18" y2="239.75" gradientTransform="matrix(1 0 0 1 0 -198)">
		<stop  offset="0" style="stop-color:#F8E4E2"/>
		<stop  offset="0.1693" style="stop-color:#FFF4F0"/>
		<stop  offset="0.5" style="stop-color:#FFF4F0"/>
	</linearGradient>
	<path class="st1" d="M18,34.8c-2.8,1.2-4.3,1-6.7,1.5c-2.7,0.6-3.5,1.1-4.2,2.1c-0.8,1.1-0.6,2.2-0.7,5.8c-0.1,2-0.2,3.5-0.3,4.5
		H18"/>
	
		<linearGradient id="SVGID_3_" gradientUnits="userSpaceOnUse" x1="-271.9" y1="239.75" x2="-260" y2="239.75" gradientTransform="matrix(-1 0 0 1 -242 -198)">
		<stop  offset="0" style="stop-color:#F8E4E2"/>
		<stop  offset="0.1693" style="stop-color:#FFF4F0"/>
		<stop  offset="0.5" style="stop-color:#FFF4F0"/>
	</linearGradient>
	<path class="st2" d="M18,34.8c2.8,1.2,4.3,1,6.7,1.5c2.7,0.6,3.5,1.1,4.2,2.1c0.8,1.1,0.6,2.2,0.7,5.8c0.1,2,0.2,3.5,0.3,4.5H18"/>
</g>
<g>
	
		<linearGradient id="SVGID_4_" gradientUnits="userSpaceOnUse" x1="18" y1="233.8464" x2="18" y2="228.4777" gradientTransform="matrix(1 0 0 1 0 -198)">
		<stop  offset="0.3" style="stop-color:#FFF4F0"/>
		<stop  offset="0.5286" style="stop-color:#F6E0DE"/>
		<stop  offset="0.8" style="stop-color:#EBC8C8"/>
	</linearGradient>
	<path class="st3" d="M15.2,35.8c0.1-1.8,0.1-3.6,0-5.4c1.9,0,3.8,0,5.6,0c-0.1,1.8-0.1,3.6,0,5.4"/>
	<path class="st4" d="M15.2,35.8c0.1-1.8,0.1-3.6,0-5.4c1.9,0,3.8,0,5.6,0c-0.1,1.8-0.1,3.6,0,5.4"/>
</g>
<g>
	<g>
		
			<radialGradient id="SVGID_5_" cx="10.8858" cy="157.9987" r="1.5105" gradientTransform="matrix(1 0 0 1.5 0 -210.9993)" gradientUnits="userSpaceOnUse">
			<stop  offset="0" style="stop-color:#EBC8C8"/>
			<stop  offset="0.6" style="stop-color:#FFF4F0"/>
		</radialGradient>
		<path class="st5" d="M12.2,25.6c0.3,0.8,0,1.7-0.7,2s-1.5-0.1-1.8-1s0-1.9,0.7-2.1C11,24.2,11.8,24.7,12.2,25.6z"/>
		<path class="st6" d="M12.2,25.6c0.3,0.8,0,1.7-0.7,2s-1.5-0.1-1.8-1s0-1.9,0.7-2.1C11,24.2,11.8,24.7,12.2,25.6z"/>
	</g>
	<g>
		
			<radialGradient id="SVGID_6_" cx="25.1142" cy="158.0171" r="1.5105" gradientTransform="matrix(1 0 0 1.5 0 -211.0085)" gradientUnits="userSpaceOnUse">
			<stop  offset="0" style="stop-color:#EBC8C8"/>
			<stop  offset="0.6" style="stop-color:#FFF4F0"/>
		</radialGradient>
		<path class="st7" d="M23.8,25.5c-0.3,0.9,0,1.9,0.7,2.1s1.5-0.3,1.8-1.1c0.3-0.8,0-1.7-0.7-2C25,24.2,24.2,24.6,23.8,25.5z"/>
		<path class="st6" d="M23.8,25.5c-0.3,0.9,0,1.9,0.7,2.1s1.5-0.3,1.8-1.1c0.3-0.8,0-1.7-0.7-2C25,24.2,24.2,24.6,23.8,25.5z"/>
	</g>
</g>
<linearGradient id="SVGID_7_" gradientUnits="userSpaceOnUse" x1="18" y1="230.4611" x2="18" y2="209.0668" gradientTransform="matrix(1 0 0 1 0 -198)">
	<stop  offset="0" style="stop-color:#F8E4E2"/>
	<stop  offset="0.1693" style="stop-color:#FFF4F0"/>
	<stop  offset="0.5" style="stop-color:#FFF4F0"/>
	<stop  offset="1" style="stop-color:#EBC8C8"/>
</linearGradient>
<path class="st8" d="M23.5,13.3c-2-1.9-5.4-2.2-5.5-2.2s-3.6,0.3-5.5,2.2c-2.3,2.2-2.9,5.4-2.6,7.3c0,0.2,0.2,0.8,0.3,1.5
	c0.1,0.5,0.4,1.8,0.7,3.2c0.5,2.6,0.5,3,1,3.7c1,1.4,2.5,2.1,3.9,2.7c0.9,0.4,1.6,0.6,2.2,0.7c0.5-0.1,1.3-0.4,2.2-0.7
	c1.4-0.6,3-1.3,3.9-2.7c0.5-0.7,0.4-1.1,1-3.7c0.3-1.4,0.6-2.8,0.7-3.2c0.2-0.8,0.3-1.3,0.3-1.5C26.4,18.7,25.8,15.5,23.5,13.3z"/>
<path class="st9" d="M18.3,27c0,0.5-0.4,0.6-0.4,0.6c-0.1,0-0.1-0.2-0.1-0.5v-0.2c0-0.2,0.1-0.5,0.1-0.5S18.3,26.5,18.3,27z"/>
<g>
	<g>
		<g>
			
				<radialGradient id="SVGID_8_" cx="-32.0164" cy="187.7492" r="1.787" gradientTransform="matrix(1.5429 0 0 1.2369 71.8065 -204.6374)" gradientUnits="userSpaceOnUse">
				<stop  offset="0" style="stop-color:#FFDCE6;stop-opacity:0.8"/>
				<stop  offset="0.25" style="stop-color:#FFDCE6;stop-opacity:0.75"/>
				<stop  offset="0.6" style="stop-color:#FFE9EB;stop-opacity:0.75"/>
				<stop  offset="1" style="stop-color:#FFF4F0;stop-opacity:0"/>
			</radialGradient>
			<path class="st10" d="M25.2,26.7c0.5,1-0.3,2.3-2,2.8c-1.7,0.6-3.3,0-3.6-1s0.6-2.3,2-2.7C22.9,25.2,24.5,25.6,25.2,26.7"/>
		</g>
	</g>
	<g>
		<g>
			
				<radialGradient id="SVGID_9_" cx="-37.7315" cy="187.7492" r="1.787" gradientTransform="matrix(1.5429 0 0 1.2369 71.8065 -204.6374)" gradientUnits="userSpaceOnUse">
				<stop  offset="0" style="stop-color:#FFDCE6;stop-opacity:0.8"/>
				<stop  offset="0.25" style="stop-color:#FFDCE6;stop-opacity:0.75"/>
				<stop  offset="0.6" style="stop-color:#FFE9EB;stop-opacity:0.75"/>
				<stop  offset="1" style="stop-color:#FFF4F0;stop-opacity:0"/>
			</radialGradient>
			<path class="st11" d="M10.8,26.7c-0.5,1,0.3,2.3,2,2.8c1.7,0.6,3.3,0,3.6-1s-0.6-2.3-2-2.7C13.1,25.2,11.5,25.6,10.8,26.7"/>
		</g>
	</g>
</g>
<g>
	<path class="st9" d="M10.8,37.1c0-0.1,0.9-0.2,1.5-0.2c1.1,0,2.5-0.1,3.7,0.6c0.5,0.3,0.9,0.7,0.8,0.7c0,0-0.4-0.2-1-0.5
		c-0.8-0.3-1.3-0.2-3.3-0.5C11.6,37.3,10.8,37.2,10.8,37.1z"/>
	<path class="st9" d="M25.2,37.1c0-0.1-0.9-0.2-1.5-0.2c-1.1,0-2.5-0.1-3.7,0.6c-0.5,0.3-0.9,0.7-0.8,0.7c0,0,0.4-0.2,1-0.5
		c0.8-0.3,1.3-0.2,3.3-0.5C24.4,37.3,25.2,37.2,25.2,37.1z"/>
</g>
<g>
	<path class="st12" d="M14.1,35.8c2.5,3.3,5.6,3,7.8,0"/>
</g>
<g>
	
		<radialGradient id="SVGID_10_" cx="-66.9398" cy="348.7011" r="0.4341" gradientTransform="matrix(0.9272 -0.3746 0.2884 0.7139 -20.5003 -235.7523)" gradientUnits="userSpaceOnUse">
		<stop  offset="0" style="stop-color:#FFFFD8"/>
		<stop  offset="0.2552" style="stop-color:#FFE000"/>
		<stop  offset="0.5729" style="stop-color:#FFC763"/>
		<stop  offset="1" style="stop-color:#F3AC1F"/>
	</radialGradient>
	<circle class="st13" cx="18" cy="38.3" r="0.4"/>
	
		<radialGradient id="SVGID_11_" cx="-66.9398" cy="351.0921" r="0.4341" gradientTransform="matrix(0.9272 -0.3746 0.2884 0.7139 -21.19 -235.0683)" gradientUnits="userSpaceOnUse">
		<stop  offset="0" style="stop-color:#FFFFD8"/>
		<stop  offset="0.2552" style="stop-color:#FFE000"/>
		<stop  offset="0.5729" style="stop-color:#FFC763"/>
		<stop  offset="1" style="stop-color:#F3AC1F"/>
	</radialGradient>
	<circle class="st14" cx="18" cy="40.7" r="0.4"/>
	<g>
		
			<radialGradient id="SVGID_12_" cx="-67.9166" cy="349.895" r="0.4341" gradientTransform="matrix(0.9272 -0.3746 0.2884 0.7139 -20.9158 -235.7767)" gradientUnits="userSpaceOnUse">
			<stop  offset="0" style="stop-color:#FFFFD8"/>
			<stop  offset="0.2552" style="stop-color:#FFE000"/>
			<stop  offset="0.5729" style="stop-color:#FFC763"/>
			<stop  offset="1" style="stop-color:#F3AC1F"/>
		</radialGradient>
		<circle class="st15" cx="17" cy="39.5" r="0.4"/>
		
			<radialGradient id="SVGID_13_" cx="-65.963" cy="349.895" r="0.4341" gradientTransform="matrix(0.9272 -0.3746 0.2884 0.7139 -20.7736 -235.0448)" gradientUnits="userSpaceOnUse">
			<stop  offset="0" style="stop-color:#FFFFD8"/>
			<stop  offset="0.2552" style="stop-color:#FFE000"/>
			<stop  offset="0.5729" style="stop-color:#FFC763"/>
			<stop  offset="1" style="stop-color:#F3AC1F"/>
		</radialGradient>
		<circle class="st16" cx="19" cy="39.5" r="0.4"/>
	</g>
	<g>
		
			<radialGradient id="SVGID_14_" cx="-66.2388" cy="350.658" r="0.4341" gradientTransform="matrix(0.9272 -0.3746 0.2884 0.7139 -21.0137 -234.9299)" gradientUnits="userSpaceOnUse">
			<stop  offset="0" style="stop-color:#FFFFD8"/>
			<stop  offset="0.2552" style="stop-color:#FFE000"/>
			<stop  offset="0.5729" style="stop-color:#FFC763"/>
			<stop  offset="1" style="stop-color:#F3AC1F"/>
		</radialGradient>
		<circle class="st17" cx="18.7" cy="40.2" r="0.4"/>
		
			<radialGradient id="SVGID_15_" cx="-67.6408" cy="350.658" r="0.4341" gradientTransform="matrix(0.9272 -0.3746 0.2884 0.7139 -21.1158 -235.4551)" gradientUnits="userSpaceOnUse">
			<stop  offset="0" style="stop-color:#FFFFD8"/>
			<stop  offset="0.2552" style="stop-color:#FFE000"/>
			<stop  offset="0.5729" style="stop-color:#FFC763"/>
			<stop  offset="1" style="stop-color:#F3AC1F"/>
		</radialGradient>
		<circle class="st18" cx="17.3" cy="40.2" r="0.4"/>
	</g>
	<g>
		
			<radialGradient id="SVGID_16_" cx="-66.2388" cy="349.1352" r="0.4341" gradientTransform="matrix(0.9272 -0.3746 0.2884 0.7139 -20.5745 -235.3655)" gradientUnits="userSpaceOnUse">
			<stop  offset="0" style="stop-color:#FFFFD8"/>
			<stop  offset="0.2552" style="stop-color:#FFE000"/>
			<stop  offset="0.5729" style="stop-color:#FFC763"/>
			<stop  offset="1" style="stop-color:#F3AC1F"/>
		</radialGradient>
		<circle class="st19" cx="18.7" cy="38.7" r="0.4"/>
		
			<radialGradient id="SVGID_17_" cx="-67.6403" cy="349.1352" r="0.4339" gradientTransform="matrix(0.9272 -0.3746 0.2884 0.7139 -20.6766 -235.8907)" gradientUnits="userSpaceOnUse">
			<stop  offset="0" style="stop-color:#FFFFD8"/>
			<stop  offset="0.2552" style="stop-color:#FFE000"/>
			<stop  offset="0.5729" style="stop-color:#FFC763"/>
			<stop  offset="1" style="stop-color:#F3AC1F"/>
		</radialGradient>
		<circle class="st20" cx="17.3" cy="38.7" r="0.4"/>
	</g>
</g>
<g>
	<path class="st21" d="M20.8,30.5v1c1.2-0.5,2.5-1.2,3.3-2.4c0.3-0.4,0.4-0.7,0.5-1.4c0.7,0.2,1.5-0.4,1.8-1.1
		c0.1-0.3,0.1-0.7,0.1-1c0-0.1-0.1-0.2-0.1-0.3l0,0c0-0.1-0.1-0.2-0.1-0.2l0,0c-0.1-0.1-0.1-0.1-0.2-0.2c0,0,0,0-0.1,0
		c-0.1-0.1-0.2-0.1-0.3-0.2c-0.1-0.1-0.3-0.1-0.4-0.1c0-0.1,0.1-0.2,0.1-0.4c0-0.2-0.1-0.4-0.1-0.8c-0.1-1.3-2.4-3.5-4.8-4
		S14.7,16,14.7,16s-1,2.1-1.6,2.9c-1,1.2-1.9,2-2.3,3.5c-0.1,0.3-0.1,0.8-0.1,1.1c0,0.3,0,0.5-0.1,0.7c0,0.1,0.1,0.2,0.1,0.3
		c-0.1,0-0.3,0-0.4,0c-0.1,0-0.2,0.1-0.3,0.1c0,0,0,0-0.1,0.1c-0.1,0-0.1,0.1-0.2,0.2c0,0,0,0,0,0.1s-0.1,0.1-0.1,0.2l0,0
		c0,0.1-0.1,0.2-0.1,0.3c-0.1,0.3,0,0.7,0.1,1c0.3,0.9,1.1,1.3,1.8,1.1c0.1,0.7,0.3,1,0.5,1.4c0.8,1.2,2.1,1.9,3.3,2.4v-1L20.8,30.5
		L20.8,30.5z"/>
</g>
<g>
	
		<radialGradient id="SVGID_18_" cx="13.8906" cy="222.5354" r="2.2454" gradientTransform="matrix(1 0 0 1 0 -198)" gradientUnits="userSpaceOnUse">
		<stop  offset="0" style="stop-color:#FFFFFF"/>
		<stop  offset="1" style="stop-color:#FFF4F0"/>
	</radialGradient>
	<path class="st22" d="M12.8,26.3c-3.2-1,0-4.5,2.4-3.7c1.2,0.4,1.4,1.6,0.8,2.7C15.3,26.7,14.1,26.7,12.8,26.3z"/>
	
		<radialGradient id="SVGID_19_" cx="-285.4056" cy="222.5354" r="2.2454" gradientTransform="matrix(-1 0 0 1 -263.2962 -198)" gradientUnits="userSpaceOnUse">
		<stop  offset="0" style="stop-color:#FFFFFF"/>
		<stop  offset="1" style="stop-color:#FFF4F0"/>
	</radialGradient>
	<path class="st23" d="M23.2,26.3c3.2-1,0-4.5-2.4-3.7c-1.2,0.4-1.4,1.6-0.8,2.7C20.7,26.7,21.9,26.7,23.2,26.3z"/>
</g>
</svg>
