<svg width="756" height="428" xmlns="http://www.w3.org/2000/svg" xmlns:xlink="http://www.w3.org/1999/xlink" xml:space="preserve" overflow="hidden"><defs><clipPath id="clip0"><rect x="284" y="146" width="756" height="428"/></clipPath><linearGradient x1="0" y1="333.506" x2="747.225" y2="333.506" gradientUnits="userSpaceOnUse" spreadMethod="pad" id="fill1"><stop offset="0" stop-color="#D31820"/><stop offset="1" stop-color="#A4191D"/></linearGradient><linearGradient x1="195.252" y1="148.654" x2="325.459" y2="148.654" gradientUnits="userSpaceOnUse" spreadMethod="pad" id="fill2"><stop offset="0" stop-color="#FFF33B"/><stop offset="0.0594872" stop-color="#FFE029"/><stop offset="0.1303" stop-color="#FFD218"/><stop offset="0.2032" stop-color="#FEC90F"/><stop offset="0.2809" stop-color="#FDC70C"/><stop offset="0.6685" stop-color="#F3903F"/><stop offset="0.8876" stop-color="#ED683C"/><stop offset="1" stop-color="#E93E3A"/></linearGradient><linearGradient x1="314.515" y1="147.234" x2="465.503" y2="147.234" gradientUnits="userSpaceOnUse" spreadMethod="pad" id="fill3"><stop offset="0" stop-color="#808285"/><stop offset="1"/></linearGradient><linearGradient x1="452.649" y1="155.255" x2="584.164" y2="155.255" gradientUnits="userSpaceOnUse" spreadMethod="pad" id="fill4"><stop offset="0" stop-color="#808285"/><stop offset="1"/></linearGradient><linearGradient x1="64.4867" y1="298.356" x2="200.608" y2="298.356" gradientUnits="userSpaceOnUse" spreadMethod="pad" id="fill5"><stop offset="0" stop-color="#FFFFFF"/><stop offset="0.3" stop-color="#FFFFFF"/><stop offset="1" stop-color="#E6E6E6"/></linearGradient><linearGradient x1="54.24" y1="298.356" x2="206.805" y2="298.356" gradientUnits="userSpaceOnUse" spreadMethod="pad" id="fill6"><stop offset="0" stop-color="#FFF33B"/><stop offset="0.0594872" stop-color="#FFE029"/><stop offset="0.1303" stop-color="#FFD218"/><stop offset="0.2032" stop-color="#FEC90F"/><stop offset="0.2809" stop-color="#FDC70C"/><stop offset="0.6685" stop-color="#F3903F"/><stop offset="0.8876" stop-color="#ED683C"/><stop offset="1" stop-color="#E93E3A"/></linearGradient><linearGradient x1="190.776" y1="295.786" x2="322.661" y2="295.786" gradientUnits="userSpaceOnUse" spreadMethod="pad" id="fill7"><stop offset="0" stop-color="#FFFFFF"/><stop offset="0.3" stop-color="#FFFFFF"/><stop offset="1" stop-color="#E6E6E6"/></linearGradient><linearGradient x1="178.571" y1="295.786" x2="331.844" y2="295.786" gradientUnits="userSpaceOnUse" spreadMethod="pad" id="fill8"><stop offset="0" stop-color="#FFF33B"/><stop offset="0.0594872" stop-color="#FFE029"/><stop offset="0.1303" stop-color="#FFD218"/><stop offset="0.2032" stop-color="#FEC90F"/><stop offset="0.2809" stop-color="#FDC70C"/><stop offset="0.6685" stop-color="#F3903F"/><stop offset="0.8876" stop-color="#ED683C"/><stop offset="1" stop-color="#E93E3A"/></linearGradient><linearGradient x1="321.229" y1="298.582" x2="465.503" y2="298.582" gradientUnits="userSpaceOnUse" spreadMethod="pad" id="fill9"><stop offset="0" stop-color="#808285"/><stop offset="1"/></linearGradient><linearGradient x1="555.698" y1="296.726" x2="651.705" y2="297.997" gradientUnits="userSpaceOnUse" spreadMethod="pad" id="fill10"><stop offset="0" stop-color="#FFF33B"/><stop offset="0.0594872" stop-color="#FFE029"/><stop offset="0.1303" stop-color="#FFD218"/><stop offset="0.2032" stop-color="#FEC90F"/><stop offset="0.2809" stop-color="#FDC70C"/><stop offset="0.6685" stop-color="#F3903F"/><stop offset="0.8876" stop-color="#ED683C"/><stop offset="1" stop-color="#E93E3A"/></linearGradient><linearGradient x1="28.7559" y1="121.401" x2="218.203" y2="121.401" gradientUnits="userSpaceOnUse" spreadMethod="pad" id="fill11"><stop offset="0" stop-color="#FFF33B"/><stop offset="0.0594872" stop-color="#FFE029"/><stop offset="0.1303" stop-color="#FFD218"/><stop offset="0.2032" stop-color="#FEC90F"/><stop offset="0.2809" stop-color="#FDC70C"/><stop offset="0.6685" stop-color="#F3903F"/><stop offset="0.8876" stop-color="#ED683C"/><stop offset="1" stop-color="#E93E3A"/></linearGradient><linearGradient x1="458.346" y1="293.366" x2="582.493" y2="293.366" gradientUnits="userSpaceOnUse" spreadMethod="pad" id="fill12"><stop offset="0" stop-color="#808285"/><stop offset="1"/></linearGradient></defs><g clip-path="url(#clip0)" transform="translate(-284 -146)"><path d="M643.937 348.92C680.572 323.744 717.045 297.276 753.196 269.517 507.564 328.424 251.603 328.424 5.97134 269.517 5.97134 307.605 5.97134 345.692 5.97134 383.941 251.603 442.848 507.564 442.848 753.196 383.941 717.045 373.451 680.572 361.831 643.937 348.92Z" fill="#D1D3D4" transform="matrix(1.00232 0 0 1 284.528 146)"/><path d="M0 252.41C43.5747 230.139 88.7632 216.905 132.661 213.032 138.955 237.885 145.249 263.062 151.543 288.4 107.968 289.852 62.7798 300.342 18.8824 319.87 12.5882 297.276 6.29412 274.682 0 252.41Z" fill="#750506" transform="matrix(1.00232 0 0 1 284.528 146)"/><path d="M637.965 333.588C674.6 308.412 711.074 281.944 747.225 254.186 501.593 313.092 245.632 313.092 0 254.186 0 292.273 0 330.36 0 368.609 245.632 427.516 501.593 427.516 747.225 368.609 711.074 358.281 674.6 346.499 637.965 333.588Z" fill="url(#fill1)" transform="matrix(1.00232 0 0 1 284.528 146)"/><path d="M367.964 131.047C377.647 126.528 385.071 120.879 389.913 113.617 397.659 120.395 405.729 126.205 414.121 131.047 422.513 135.888 431.551 138.955 441.072 140.084L455.275 122.977C441.879 119.911 429.937 114.908 419.446 108.452 408.956 101.836 403.792 93.7662 403.792 83.7602L403.792 75.368 377.002 75.368 377.002 83.7602C377.808 94.089 372.321 102.804 360.217 109.421 348.113 116.199 336.655 120.718 325.357 122.977L339.56 140.084C348.759 138.471 358.119 135.404 367.964 131.047Z" stroke="#D7DF23" stroke-width="33.8914" stroke-linecap="round" stroke-linejoin="round" stroke-miterlimit="10" fill="#D7DF23" transform="matrix(1.00232 0 0 1 284.528 146)"/><path d="M563.727 151.866 580.995 151.866 580.995 133.145 563.727 133.145 563.727 122.816 580.995 122.816 580.995 104.095 563.727 104.095 563.727 89.8929 542.101 89.8929 542.101 168.327 563.727 168.327Z" stroke="#D7DF23" stroke-width="33.8914" stroke-linecap="round" stroke-linejoin="round" stroke-miterlimit="10" fill="#D7DF23" transform="matrix(1.00232 0 0 1 284.528 146)"/><path d="M70.5264 343.594 152.511 343.594 148.315 365.704 172.201 365.704 179.947 324.389 74.0769 324.389Z" stroke="#D7DF23" stroke-width="33.8914" stroke-linecap="round" stroke-linejoin="round" stroke-miterlimit="10" fill="#D7DF23" transform="matrix(1.00232 0 0 1 284.528 146)"/><path d="M200.282 299.697 64.2323 299.697 60.6817 318.418 196.893 318.418Z" stroke="#D7DF23" stroke-width="33.8914" stroke-linecap="round" stroke-linejoin="round" stroke-miterlimit="10" fill="#D7DF23" transform="matrix(1.00232 0 0 1 284.528 146)"/><path d="M307.605 281.137 316.965 231.268 295.339 231.268 271.131 360.379 292.757 360.379 303.893 301.311 321.646 301.311 325.357 281.137Z" stroke="#D7DF23" stroke-width="33.8914" stroke-linecap="round" stroke-linejoin="round" stroke-miterlimit="10" fill="#D7DF23" transform="matrix(1.00232 0 0 1 284.528 146)"/><path d="M256.122 244.341 256.122 213.032C260.641 213.516 265.483 213.839 270.647 213.839 282.913 213.839 293.241 212.225 301.472 209.158L301.472 231.107 498.526 231.107 498.526 219.487C503.852 220.294 509.824 220.617 516.44 220.617 533.225 220.617 545.974 218.196 554.528 213.354 563.081 208.513 567.278 202.219 567.278 194.633 567.278 187.048 563.081 180.754 554.528 175.913 545.974 171.071 533.386 168.65 516.44 168.65 509.824 168.65 503.852 168.973 498.526 169.78L498.526 168.65 462.214 168.65 462.214 164.938 480.128 164.938C489.65 164.938 499.818 164.454 510.63 163.647 521.443 162.84 529.513 162.033 535 161.226L535 143.474C529.836 144.119 522.573 144.926 513.051 145.572 503.529 146.379 495.783 146.701 489.811 146.701L477.707 146.701 477.707 139.278 523.542 139.278 523.542 95.7029 456.081 95.7029 456.081 113.94 501.916 113.94 501.916 121.525 456.081 121.525 456.081 147.992 320.516 147.992 320.516 83.4374 298.89 83.4374 298.89 111.357 277.103 111.357 277.103 129.594 298.89 129.594 298.89 160.419 317.934 160.419 317.934 168.811 309.864 168.811C309.38 168.489 309.057 168.327 308.573 168.005 299.374 162.84 286.786 160.258 270.808 160.258 265.644 160.258 260.802 160.581 256.284 161.065L256.284 148.799 232.237 148.799C237.563 144.765 241.113 140.891 243.211 137.179 246.116 141.698 250.474 145.41 256.284 148.799 262.094 152.027 267.419 154.448 272.1 156.062L283.397 140.246C279.685 138.955 273.875 135.888 265.967 131.047 258.059 126.205 254.024 119.75 254.024 111.842L254.024 109.098 277.587 109.098 277.587 90.3771 207.545 90.3771 207.545 108.775 192.374 104.741 206.253 52.7738 176.719 44.8658 149.768 145.894 87.7949 145.894 87.7949 178.979 69.8808 174.137 76.6591 148.799 45.1885 140.407 31.9548 190.115 145.087 220.456 145.087 231.107 93.1207 231.107 81.5008 293.241 187.048 293.241 190.276 275.811 107.807 275.811 108.775 270.97 188.985 270.97 191.083 259.995 206.576 259.995 205.931 263.223 247.569 263.223C246.116 268.872 243.857 274.359 240.79 279.685L240.79 270.163 197.054 270.163 197.054 295.985 228.686 295.985C227.072 297.76 225.459 299.374 223.683 300.988 211.256 312.608 198.345 321.161 184.95 326.487L199.637 339.237C216.582 331.652 232.721 319.87 247.73 303.732 262.739 287.593 272.584 267.903 276.941 244.341L256.122 244.341ZM516.602 185.434C524.994 185.434 531.611 186.241 536.453 187.855 541.294 189.469 543.715 191.729 543.715 194.795 543.715 197.7 541.294 199.959 536.453 201.573 531.611 203.187 524.994 203.994 516.602 203.994 509.339 203.994 503.207 203.348 498.526 202.219L498.526 187.21C503.207 185.919 509.339 185.434 516.602 185.434ZM270.808 177.204C278.878 177.204 285.656 178.172 290.821 180.109 295.985 182.045 298.567 184.305 298.567 187.048 298.567 189.63 295.985 192.051 290.821 193.988 285.656 196.086 279.039 197.054 270.808 197.054 265.16 197.054 260.318 196.57 256.122 195.44L256.122 178.333C260.318 177.688 265.321 177.204 270.808 177.204ZM207.867 137.179 214.968 110.712 208.836 109.098 231.591 109.098 231.591 111.842C231.591 119.265 228.041 125.56 220.94 130.885 213.839 136.211 206.415 140.407 198.668 143.151L203.026 148.799 180.916 148.799 185.596 131.208 207.867 137.179ZM99.7376 182.207 145.087 182.207 145.087 194.311 99.7376 182.207ZM112.81 248.537 145.087 248.537 145.087 253.863 111.842 253.863 112.81 248.537Z" stroke="#D7DF23" stroke-width="33.8914" stroke-linecap="round" stroke-linejoin="round" stroke-miterlimit="10" fill="#D7DF23" transform="matrix(1.00232 0 0 1 284.528 146)"/><path d="M366.995 320.032 343.756 320.032 343.756 365.866 448.496 365.866 448.496 346.015 366.995 346.015Z" stroke="#D7DF23" stroke-width="33.8914" stroke-linecap="round" stroke-linejoin="round" stroke-miterlimit="10" fill="#D7DF23" transform="matrix(1.00232 0 0 1 284.528 146)"/><path d="M328.262 237.401 409.925 237.401 409.925 257.413 328.262 257.413Z" stroke="#D7DF23" stroke-width="33.8914" stroke-linecap="round" stroke-linejoin="round" stroke-miterlimit="10" fill="#D7DF23" transform="matrix(1.00232 0 0 1 284.528 146)"/><path d="M382.65 313.253C388.299 312.931 393.463 312.608 398.143 312.285 402.824 311.962 407.988 311.478 413.959 310.833L413.959 290.821C410.409 291.305 407.665 291.466 405.567 291.789 403.469 291.95 400.564 292.273 397.014 292.434L399.434 262.255 376.517 262.255 374.419 293.887 362.961 294.048 360.701 262.255 337.784 262.255 340.528 294.048 324.389 294.048 324.389 314.06C325.357 314.06 333.104 314.06 347.629 314.06 361.992 313.899 373.774 313.576 382.65 313.253Z" stroke="#D7DF23" stroke-width="33.8914" stroke-linecap="round" stroke-linejoin="round" stroke-miterlimit="10" fill="#D7DF23" transform="matrix(1.00232 0 0 1 284.528 146)"/><path d="M608.916 194.311 586.16 279.039 579.22 327.294 579.22 226.427 557.594 226.427 557.594 274.682 548.879 274.682 548.879 229.332 527.092 229.332 527.092 354.246 548.879 354.246 548.879 297.437 557.594 297.437 557.594 360.379 579.22 360.379 579.22 339.398 602.137 345.531 624.409 289.207 647.164 204.64Z" stroke="#D7DF23" stroke-width="33.8914" stroke-linecap="round" stroke-linejoin="round" stroke-miterlimit="10" fill="#D7DF23" transform="matrix(1.00232 0 0 1 284.528 146)"/><path d="M563.959 365.105 595.434 365.105 595.434 396.741 563.959 396.741Z" stroke="#D7DF23" stroke-width="33.8957" stroke-linecap="round" stroke-linejoin="round" stroke-miterlimit="10" fill="#D7DF23" transform="matrix(0.259368 -0.965779 0.96802 0.258767 346.29 988.209)"/><path d="M96.3605 4.51942 119.442 4.51942 119.442 68.2756 96.3605 68.2756Z" stroke="#D7DF23" stroke-width="33.8957" stroke-linecap="round" stroke-linejoin="round" stroke-miterlimit="10" fill="#D7DF23" transform="matrix(0.259368 -0.965779 0.96802 0.258767 329.444 277.116)"/><path d="M79.2413 142.667C94.089 146.701 107.323 147.024 118.62 143.635 129.917 140.246 136.857 134.275 139.116 125.398 141.698 116.038 138.793 107.161 130.724 98.6078 122.655 90.2157 111.035 83.9216 96.187 79.8869 82.3077 76.175 69.3967 75.8522 57.7768 78.9186 45.9955 81.9849 38.8944 88.279 36.4736 97.6395 34.0528 106.677 37.1192 115.392 45.6727 124.107 54.2262 132.661 65.362 138.955 79.2413 142.667ZM66.4917 105.548C67.2986 102.32 70.365 100.706 75.368 100.544 80.371 100.383 85.5354 100.867 90.6999 102.32 95.7029 103.611 100.222 105.709 104.418 108.291 108.452 110.873 110.066 113.94 109.259 117.167 108.452 120.395 105.548 122.009 100.706 122.009 95.8643 122.17 91.0226 121.525 85.8582 120.234 80.6938 118.781 76.0136 116.845 71.6561 114.424 67.2986 111.842 65.6848 108.937 66.4917 105.548Z" stroke="#D7DF23" stroke-width="33.8914" stroke-linecap="round" stroke-linejoin="round" stroke-miterlimit="10" fill="#D7DF23" transform="matrix(1.00232 0 0 1 284.528 146)"/><path d="M88.4515 7.42477 112.179 7.42477 112.179 123.154 88.4515 123.154Z" stroke="#D7DF23" stroke-width="33.8957" stroke-linecap="round" stroke-linejoin="round" stroke-miterlimit="10" fill="#D7DF23" transform="matrix(0.259368 -0.965779 0.96802 0.258767 295.956 291.225)"/><path d="M461.569 268.226 444.623 268.226 444.623 231.107 421.545 231.107 421.545 331.006 444.623 331.006 444.623 288.238 461.569 288.238 461.569 332.781 517.732 332.781 517.732 242.566 461.569 242.566 461.569 268.226ZM483.356 261.932 495.783 261.932 495.783 313.253 483.356 313.253 483.356 261.932Z" stroke="#D7DF23" stroke-width="33.8914" stroke-linecap="round" stroke-linejoin="round" stroke-miterlimit="10" fill="#D7DF23" transform="matrix(1.00232 0 0 1 284.528 146)"/><path d="M270.647 217.066C254.024 217.066 240.79 214.323 231.268 208.836 221.101 203.026 215.937 195.763 215.937 186.887 215.937 178.172 221.101 170.748 231.268 165.1 239.822 160.258 251.281 157.676 265.483 157.03 262.094 155.578 258.382 153.802 254.508 151.543 249.828 148.961 246.116 146.056 243.211 142.667 240.629 145.894 236.917 149.284 232.237 152.673 225.781 157.353 219.003 160.742 212.225 163.002 211.902 163.163 211.579 163.163 211.256 163.163 210.288 163.163 209.32 162.679 208.674 161.872L195.925 145.249C195.279 144.442 195.118 143.312 195.44 142.344 195.763 141.376 196.409 140.569 197.377 140.246 204.801 137.502 212.063 133.629 218.842 128.465 224.974 123.784 228.041 118.62 228.202 112.487L207.545 112.487C205.769 112.487 204.317 111.035 204.317 109.259L204.317 90.3771C204.317 88.6018 205.769 87.1493 207.545 87.1493L277.587 87.1493C279.362 87.1493 280.814 88.6018 280.814 90.3771L280.814 108.13 295.339 108.13 295.339 83.4374C295.339 81.6621 296.792 80.2097 298.567 80.2097L320.193 80.2097C321.968 80.2097 323.421 81.6621 323.421 83.4374L323.421 160.258C323.421 162.033 321.968 163.486 320.193 163.486L306.959 163.486C307.928 163.97 308.896 164.454 309.864 164.938 320.193 170.587 325.357 178.011 325.357 186.725 325.357 195.44 320.193 202.864 309.864 208.674 300.342 214.323 287.109 217.066 270.647 217.066ZM270.808 180.431C263.223 180.431 256.768 181.238 251.926 183.014 247.407 184.627 246.278 186.08 246.278 186.725 246.278 187.371 247.569 188.985 252.087 190.922 256.929 192.858 263.223 193.988 270.97 193.988 278.716 193.988 285.011 193.02 289.691 191.083 294.21 189.308 295.339 187.694 295.339 187.048 295.339 186.241 293.887 184.627 289.691 183.175 284.849 181.4 278.555 180.431 270.808 180.431ZM275.327 157.03C282.751 157.353 289.529 158.16 295.501 159.612L295.501 132.822 276.941 132.822C275.166 132.822 273.713 131.37 273.713 129.594L273.713 112.326 257.252 112.326C257.413 118.943 260.802 124.107 267.581 128.303 275.327 132.983 280.976 136.05 284.365 137.179 285.333 137.502 286.14 138.309 286.463 139.278 286.786 140.246 286.624 141.376 285.979 142.183L275.327 157.03Z" fill="url(#fill2)" transform="matrix(1.00232 0 0 1 284.528 146)"/><path d="M320.354 83.4374 320.354 160.258 298.729 160.258 298.729 129.594 276.941 129.594 276.941 111.357 298.729 111.357 298.729 83.4374 320.354 83.4374M277.587 90.3771 277.587 109.098 253.863 109.098 253.863 111.842C253.863 119.75 257.897 126.205 265.805 131.047 273.713 135.888 279.523 138.955 283.235 140.246L271.938 156.062C267.258 154.448 261.932 152.027 256.122 148.799 250.312 145.572 245.955 141.698 243.05 137.179 240.79 141.214 236.433 145.572 230.3 150.09 224.167 154.609 217.712 157.837 211.256 159.935L198.507 143.151C206.253 140.407 213.677 136.211 220.778 130.885 227.879 125.56 231.43 119.104 231.43 111.842L231.43 109.098 207.545 109.098 207.545 90.3771 277.587 90.3771M270.647 160.258C286.624 160.258 299.213 162.84 308.412 168.005 317.611 173.169 322.13 179.463 322.13 187.048 322.13 194.633 317.449 200.928 308.412 206.092 299.213 211.256 286.624 213.839 270.647 213.839 254.508 213.839 241.92 211.256 232.882 206.092 223.845 200.928 219.164 194.472 219.164 187.048 219.164 179.463 223.683 173.169 232.882 168.005 242.081 162.84 254.67 160.258 270.647 160.258M270.808 197.054C278.878 197.054 285.656 196.086 290.821 193.988 295.985 191.89 298.567 189.63 298.567 187.048 298.567 184.305 295.985 182.045 290.821 180.109 285.656 178.172 279.039 177.204 270.808 177.204 262.739 177.204 256.122 178.172 250.796 179.947 245.471 181.722 242.888 183.982 242.888 186.725 242.888 189.308 245.471 191.729 250.796 193.988 255.961 196.086 262.739 197.054 270.808 197.054M320.354 76.9819 298.729 76.9819C295.178 76.9819 292.273 79.8869 292.273 83.4374L292.273 104.902 284.204 104.902 284.204 90.3771C284.204 86.8265 281.299 83.9216 277.748 83.9216L207.706 83.9216C204.155 83.9216 201.25 86.8265 201.25 90.3771L201.25 109.098C201.25 112.649 204.155 115.554 207.706 115.554L224.652 115.554C223.683 119.265 221.101 122.655 217.066 125.882 210.449 130.885 203.51 134.597 196.409 137.179 194.472 137.825 193.02 139.439 192.374 141.376 191.729 143.312 192.213 145.41 193.504 147.186L206.253 163.97C207.545 165.584 209.481 166.552 211.418 166.552 212.063 166.552 212.709 166.391 213.354 166.229 220.456 163.97 227.557 160.419 234.173 155.416 237.885 152.673 240.952 150.09 243.373 147.508 246.116 150.09 249.344 152.35 253.056 154.448 253.217 154.609 253.54 154.771 253.701 154.771 244.179 156.062 236.271 158.644 229.655 162.195 218.357 168.489 212.709 176.881 212.709 186.887 212.709 196.893 218.357 205.285 229.655 211.579 239.661 217.228 253.54 220.133 270.647 220.133 287.593 220.133 301.472 217.228 311.64 211.579 322.937 205.124 328.747 196.893 328.747 186.887 328.747 179.14 325.196 172.362 318.418 166.713L320.354 166.713C323.905 166.713 326.81 163.808 326.81 160.258L326.81 83.4374C326.81 79.8869 323.905 76.9819 320.354 76.9819L320.354 76.9819ZM260.802 115.554 270.486 115.554 270.486 126.367C270.163 126.205 269.679 125.882 269.356 125.56 263.707 122.17 261.609 118.62 260.802 115.554L260.802 115.554ZM288.077 136.05 292.273 136.05 292.273 155.578C288.884 154.932 285.172 154.448 281.299 154.125L288.561 143.958C289.691 142.344 290.014 140.246 289.529 138.309 289.207 137.502 288.722 136.695 288.077 136.05L288.077 136.05ZM250.958 186.725C251.442 186.564 252.087 186.241 252.894 185.919 257.413 184.305 263.546 183.498 270.808 183.498 278.071 183.498 284.042 184.305 288.561 185.919 289.368 186.241 290.175 186.564 290.659 186.887 290.175 187.21 289.368 187.532 288.4 187.855 284.042 189.63 278.071 190.437 270.808 190.437 263.546 190.437 257.736 189.469 253.217 187.694 252.249 187.532 251.442 187.048 250.958 186.725L250.958 186.725Z" fill="#FFFFFF" transform="matrix(1.00232 0 0 1 284.528 146)"/><path d="M377.324 222.392C375.549 222.392 374.097 220.94 374.097 219.164L374.097 172.362 317.772 172.362C315.997 172.362 314.544 170.91 314.544 169.134L314.544 148.154C314.544 146.379 315.997 144.926 317.772 144.926L462.376 144.926C464.151 144.926 465.603 146.379 465.603 148.154L465.603 169.134C465.603 170.91 464.151 172.362 462.376 172.362L406.051 172.362 406.051 219.164C406.051 220.94 404.599 222.392 402.824 222.392L377.324 222.392ZM339.398 143.312C338.43 143.312 337.462 142.828 336.977 142.183L322.775 125.075C322.13 124.268 321.807 122.977 322.291 122.009 322.614 120.879 323.582 120.072 324.712 119.911 335.525 117.652 346.822 113.294 358.603 106.839 369.578 100.706 374.419 93.2821 373.774 84.2443 373.774 84.083 373.774 84.083 373.774 83.9216L373.774 75.5294C373.774 73.7542 375.226 72.3017 377.002 72.3017L403.792 72.3017C405.567 72.3017 407.02 73.7542 407.02 75.5294L407.02 83.9216C407.02 92.6365 411.7 99.8989 421.222 105.87 431.389 112.164 443.009 117.006 456.081 120.072 457.211 120.395 458.018 121.202 458.341 122.17 458.664 123.3 458.502 124.43 457.695 125.237L443.493 142.344C442.848 143.151 442.041 143.474 441.072 143.474 440.911 143.474 440.75 143.474 440.75 143.474 430.905 142.183 421.383 139.116 412.668 134.113 405.083 129.756 397.659 124.591 390.558 118.459 385.394 124.753 378.293 130.078 369.416 134.113 359.572 138.632 349.566 141.86 340.044 143.474 339.721 143.312 339.56 143.312 339.398 143.312Z" fill="url(#fill3)" transform="matrix(1.00232 0 0 1 284.528 146)"/><path d="M403.63 75.368 403.63 83.7602C403.63 93.6048 408.795 101.836 419.285 108.452 429.775 115.069 441.718 119.911 455.113 122.977L440.911 140.084C431.389 138.955 422.351 135.888 413.959 131.047 405.567 126.205 397.498 120.395 389.751 113.617 384.748 120.718 377.486 126.528 367.802 131.047 358.119 135.566 348.597 138.471 339.237 140.084L325.035 122.977C336.17 120.718 347.79 116.199 359.894 109.421 371.999 102.643 377.486 94.089 376.679 83.7602L376.679 75.368 403.63 75.368M462.214 147.992 462.214 168.973 402.662 168.973 402.662 219.003 377.163 219.003 377.163 168.973 317.611 168.973 317.611 147.992 462.214 147.992M403.63 68.9125 376.84 68.9125C373.29 68.9125 370.385 71.8175 370.385 75.368L370.385 83.7602C370.385 83.9216 370.385 84.083 370.385 84.2443 370.869 89.086 369.9 96.5098 356.989 103.772 345.531 110.066 334.557 114.424 324.066 116.522 321.807 117.006 320.032 118.62 319.225 120.718 318.418 122.816 318.902 125.237 320.354 127.012L332.297 141.537 317.772 141.537C314.222 141.537 311.317 144.442 311.317 147.992L311.317 168.973C311.317 172.523 314.222 175.428 317.772 175.428L370.869 175.428 370.869 219.003C370.869 222.554 373.774 225.459 377.324 225.459L402.824 225.459C406.374 225.459 409.279 222.554 409.279 219.003L409.279 175.428 462.376 175.428C465.926 175.428 468.831 172.523 468.831 168.973L468.831 147.992C468.831 144.442 465.926 141.537 462.376 141.537L448.173 141.537 460.116 127.012C461.569 125.237 462.053 122.977 461.246 120.879 460.6 118.781 458.825 117.167 456.566 116.683 443.816 113.778 432.519 109.098 422.674 102.965 414.121 97.6395 410.086 91.3454 410.086 83.7602L410.086 75.368C410.086 71.8175 407.181 68.9125 403.63 68.9125L403.63 68.9125ZM358.926 141.537C362.799 140.246 366.673 138.632 370.707 136.857 378.938 133.145 385.716 128.465 390.881 122.816 397.336 128.142 404.115 132.822 410.893 136.695 414.282 138.632 417.671 140.246 421.06 141.698L358.926 141.698 358.926 141.537Z" fill="#FFFFFF" transform="matrix(1.00232 0 0 1 284.528 146)"/><path d="M516.44 223.845C499.172 223.845 485.938 221.262 476.9 216.098 467.217 210.611 462.376 203.348 462.376 194.472 462.376 185.596 467.217 178.333 476.9 173.008 480.774 170.91 485.293 169.134 490.78 168.005 487.229 168.166 483.679 168.166 480.128 168.166L455.92 168.166C454.145 168.166 452.692 166.713 452.692 164.938L452.692 121.686C452.692 119.911 454.145 118.459 455.92 118.459L498.526 118.459 498.526 117.329 455.92 117.329C454.145 117.329 452.692 115.876 452.692 114.101L452.692 95.7029C452.692 93.9276 454.145 92.4751 455.92 92.4751L523.38 92.4751C525.155 92.4751 526.608 93.9276 526.608 95.7029L526.608 139.116C526.608 139.923 526.285 140.569 525.962 141.053 529.351 140.73 532.256 140.407 534.677 140.084 534.839 140.084 535 140.084 535.161 140.084 535.968 140.084 536.775 140.407 537.259 140.891 537.905 141.537 538.389 142.344 538.389 143.312L538.389 161.226C538.389 162.84 537.259 164.131 535.646 164.454 532.902 164.777 529.351 165.261 525.317 165.584 530.32 165.906 535 166.391 539.357 167.198L539.357 89.8929C539.357 88.1176 540.81 86.6652 542.585 86.6652L564.211 86.6652C565.986 86.6652 567.439 88.1176 567.439 89.8929L567.439 100.706 581.318 100.706C583.094 100.706 584.546 102.158 584.546 103.934L584.546 122.655C584.546 124.43 583.094 125.882 581.318 125.882L567.439 125.882 567.439 129.756 581.318 129.756C583.094 129.756 584.546 131.208 584.546 132.983L584.546 151.704C584.546 153.48 583.094 154.932 581.318 154.932L567.439 154.932 567.439 168.166C567.439 169.941 565.986 171.394 564.211 171.394L553.398 171.394C554.528 171.878 555.496 172.362 556.465 173.008 565.986 178.333 570.828 185.596 570.828 194.472 570.828 203.348 565.986 210.611 556.465 215.937 547.104 221.262 533.709 223.845 516.44 223.845ZM516.602 188.662C508.532 188.662 501.916 189.469 497.235 190.922 495.299 191.567 491.909 192.858 491.909 194.795 491.909 196.57 495.621 198.023 497.235 198.507 501.916 199.959 508.371 200.766 516.602 200.766 524.51 200.766 530.804 199.959 535.484 198.507 537.098 198.023 540.649 196.57 540.649 194.795 540.649 192.858 537.421 191.567 535.484 190.922 530.804 189.308 524.51 188.662 516.602 188.662ZM489.65 143.312C495.137 143.312 502.4 142.989 510.953 142.344L480.774 142.344 480.774 143.312 489.65 143.312Z" fill="url(#fill4)" transform="matrix(1.00232 0 0 1 284.528 146)"/><path d="M563.727 89.8929 563.727 103.934 580.995 103.934 580.995 122.655 563.888 122.655 563.888 132.983 580.995 132.983 580.995 151.704 563.888 151.704 563.888 168.166 542.262 168.166 542.262 89.8929 563.727 89.8929M523.219 95.7029 523.219 139.116 477.385 139.116 477.385 146.54 489.489 146.54C495.46 146.54 503.207 146.217 512.729 145.41 522.25 144.765 529.674 143.958 534.677 143.312L534.677 161.226C529.19 162.033 521.121 162.84 510.308 163.647 499.495 164.454 489.327 164.938 479.805 164.938L455.597 164.938 455.597 121.686 501.431 121.686 501.431 114.101 455.597 114.101 455.597 95.7029 523.219 95.7029M516.44 168.65C533.225 168.65 545.974 171.071 554.528 175.913 563.081 180.754 567.278 186.887 567.278 194.633 567.278 202.219 563.081 208.513 554.528 213.354 545.974 218.196 533.386 220.617 516.44 220.617 499.656 220.617 487.068 218.196 478.514 213.354 469.961 208.513 465.603 202.219 465.603 194.633 465.603 187.048 469.961 180.754 478.514 175.913 487.068 171.071 499.656 168.65 516.44 168.65M516.602 203.833C524.994 203.833 531.611 203.026 536.453 201.412 541.294 199.798 543.715 197.538 543.715 194.633 543.715 191.567 541.294 189.308 536.453 187.694 531.611 186.08 524.994 185.273 516.602 185.273 508.048 185.273 501.27 186.08 496.267 187.694 491.264 189.308 488.682 191.567 488.682 194.633 488.682 197.538 491.264 199.798 496.267 201.412 501.27 203.026 508.048 203.833 516.602 203.833M563.727 83.4374 542.101 83.4374C538.551 83.4374 535.646 86.3424 535.646 89.8929L535.646 137.018C535.323 137.018 535.161 137.018 534.839 137.018 534.516 137.018 534.354 137.018 534.032 137.018 532.741 137.179 531.288 137.341 529.674 137.502L529.674 95.7029C529.674 92.1523 526.769 89.2474 523.219 89.2474L455.759 89.2474C452.208 89.2474 449.303 92.1523 449.303 95.7029L449.303 113.94C449.303 115.392 449.787 116.683 450.594 117.652 449.787 118.781 449.303 120.072 449.303 121.363L449.303 164.615C449.303 168.166 452.208 171.071 455.759 171.071L473.35 171.071C461.569 178.333 459.148 187.694 459.148 194.311 459.148 201.25 461.891 211.095 475.287 218.68 484.97 224.167 498.365 226.75 516.44 226.75 534.516 226.75 548.072 224.167 557.756 218.68 570.989 211.095 573.733 201.25 573.733 194.311 573.733 188.662 571.958 181.077 564.05 174.46 567.439 174.299 570.182 171.394 570.182 168.005L570.182 157.998 580.834 157.998C584.385 157.998 587.29 155.094 587.29 151.543L587.29 133.145C587.29 131.047 586.321 129.11 584.707 127.98 586.321 126.851 587.29 124.914 587.29 122.816L587.29 104.095C587.29 100.544 584.385 97.6395 580.834 97.6395L570.182 97.6395 570.182 90.0543C570.182 86.3424 567.439 83.4374 563.727 83.4374L563.727 83.4374ZM496.428 194.633C496.913 194.472 497.558 194.149 498.204 193.988 502.561 192.535 508.694 191.89 516.602 191.89 524.187 191.89 530.158 192.535 534.354 193.988 535.161 194.311 535.646 194.472 536.13 194.633 535.646 194.795 535.161 195.118 534.354 195.279 530.158 196.732 524.187 197.377 516.602 197.377 508.855 197.377 502.561 196.732 498.204 195.279 497.397 195.118 496.913 194.795 496.428 194.633L496.428 194.633Z" fill="#FFFFFF" transform="matrix(1.00232 0 0 1 284.528 146)"/><path d="M60.6817 318.418 64.2323 299.535 200.282 299.535 196.732 318.418 60.6817 318.418ZM148.315 365.704 152.511 343.594 70.5264 343.594 74.0769 324.389 179.947 324.389 172.201 365.543 148.315 365.543ZM81.5008 293.241 93.1207 231.107 197.054 231.107 193.827 248.537 112.81 248.537 111.842 253.863 192.051 253.863 188.824 270.808 108.614 270.808 107.646 275.65 190.115 275.65 186.887 293.08 81.5008 293.08Z" fill="url(#fill5)" transform="matrix(1.00232 0 0 1 284.528 146)"/><path d="M197.216 231.107 197.216 231.107M197.216 231.107 193.988 248.537 112.81 248.537 111.842 253.863 192.051 253.863 188.824 270.808 108.614 270.808 107.646 275.65 190.115 275.65 186.887 293.08 81.5008 293.08 93.1207 230.946 197.216 230.946M192.051 253.863 192.051 253.863M200.282 299.697 196.732 318.579 60.6817 318.579 64.2323 299.697 200.282 299.697M179.947 324.389 172.201 365.543 148.315 365.543 152.511 343.433 70.5264 343.433 74.0769 324.228 179.947 324.228M197.216 224.652 197.216 224.652 93.1207 224.652C90.0543 224.652 87.3107 226.911 86.8265 229.977L75.2066 292.112C75.2066 292.434 75.0452 292.919 75.0452 293.241L64.2323 293.241C61.1659 293.241 58.4223 295.501 57.9382 298.567L54.3876 317.449C54.0649 319.386 54.549 321.323 55.8401 322.775 57.1312 324.228 58.9065 325.035 60.8431 325.035L67.6214 325.035 64.3937 342.465C64.0709 344.401 64.5551 346.338 65.8462 347.79 67.1373 349.243 68.9125 350.05 70.8492 350.05L144.926 350.05 142.183 364.413C141.86 366.35 142.344 368.287 143.635 369.739 144.926 371.192 146.701 371.999 148.638 371.999L172.523 371.999C175.59 371.999 178.333 369.739 178.818 366.673L186.564 325.519C186.564 325.357 186.564 325.035 186.725 324.873L197.216 324.873C200.282 324.873 203.026 322.614 203.51 319.548L207.06 300.665C207.383 298.729 206.899 296.792 205.608 295.339 204.317 293.887 202.541 293.08 200.605 293.08L193.827 293.08 196.893 276.78C197.216 275.005 196.732 273.068 195.602 271.615L198.668 255.154C198.83 254.67 198.83 254.186 198.83 253.701 198.83 253.379 198.83 253.056 198.83 252.894 199.637 252.087 200.282 250.796 200.605 249.667L203.833 232.398C203.994 231.914 203.994 231.43 203.994 230.946 203.671 227.557 200.766 224.652 197.216 224.652L197.216 224.652ZM197.216 237.563 197.216 237.563 197.216 237.563 197.216 237.563ZM200.282 306.152 200.282 306.152 200.282 306.152 200.282 306.152ZM179.947 330.845 179.947 330.845 179.947 330.845 179.947 330.845Z" fill="url(#fill6)" transform="matrix(1.00232 0 0 1 284.528 146)"/><path d="M247.891 303.57C232.882 319.709 216.744 331.49 199.798 339.075L185.112 326.326C198.507 321 211.418 312.446 223.845 300.827 236.271 289.207 244.179 276.618 247.73 263.062L206.092 263.062 209.643 244.341 277.264 244.341C272.745 267.742 262.9 287.431 247.891 303.57ZM303.893 301.311 292.757 360.379 271.131 360.379 295.339 231.268 316.965 231.268 307.605 281.299 325.357 281.299 321.646 301.311 303.893 301.311Z" fill="url(#fill7)" transform="matrix(1.00232 0 0 1 284.528 146)"/><path d="M316.965 231.268 316.965 231.268M316.965 231.268 307.605 281.299 325.357 281.299 321.646 301.311 303.893 301.311 292.757 360.379 271.131 360.379 295.339 231.268 316.965 231.268M277.103 244.341C272.745 267.742 262.9 287.593 247.891 303.732 232.882 319.87 216.744 331.652 199.798 339.237L185.112 326.487C198.507 321.161 211.418 312.608 223.845 300.988 236.271 289.368 244.179 276.78 247.73 263.223L206.092 263.223 209.643 244.502 277.103 244.502M317.127 224.813 317.127 224.813 295.339 224.813C292.273 224.813 289.529 227.072 289.045 230.139L264.837 359.249C264.514 361.186 264.999 363.122 266.29 364.575 267.581 366.027 269.356 366.834 271.293 366.834L292.919 366.834C295.985 366.834 298.729 364.575 299.213 361.508L309.38 307.605 321.807 307.605C324.873 307.605 327.617 305.345 328.101 302.279L331.813 282.267C332.136 280.33 331.652 278.394 330.36 276.941 329.069 275.489 327.294 274.682 325.357 274.682L315.351 274.682 323.259 232.56C323.421 232.075 323.421 231.591 323.421 231.107 323.582 227.718 320.677 224.813 317.127 224.813L317.127 224.813ZM316.965 237.724 316.965 237.724 316.965 237.724 316.965 237.724ZM277.103 237.885 209.481 237.885C206.415 237.885 203.671 240.145 203.187 243.211L199.637 261.932C199.314 263.869 199.798 265.805 201.089 267.258 202.38 268.71 204.155 269.517 206.092 269.517L238.854 269.517C234.98 278.878 228.525 287.754 219.487 296.146 207.706 307.282 195.44 315.351 182.852 320.354 180.754 321.161 179.302 323.098 178.818 325.196 178.495 327.456 179.302 329.715 180.916 331.167L195.602 343.917C196.732 344.885 198.345 345.531 199.798 345.531 200.605 345.531 201.573 345.37 202.38 345.047 220.133 337.139 237.078 324.712 252.572 308.089 268.388 291.143 278.878 270.163 283.397 245.471 283.719 243.534 283.235 241.597 281.944 240.145 280.814 238.692 279.039 237.885 277.103 237.885L277.103 237.885ZM277.103 250.796 277.103 250.796 277.103 250.796 277.103 250.796Z" fill="url(#fill8)" transform="matrix(1.00232 0 0 1 284.528 146)"/><path d="M343.756 369.094C341.98 369.094 340.528 367.641 340.528 365.866L340.528 320.032C340.528 318.741 341.173 317.611 342.303 317.127 331.329 317.127 325.357 317.127 324.389 317.127 322.614 317.127 321.161 315.674 321.161 313.899L321.161 293.887C321.161 292.112 322.614 290.659 324.389 290.659L336.655 290.659 334.234 262.416C334.234 261.771 334.395 261.125 334.557 260.48L328.262 260.48C326.487 260.48 325.035 259.027 325.035 257.252L325.035 237.24C325.035 235.465 326.487 234.012 328.262 234.012L409.925 234.012C411.7 234.012 413.152 235.465 413.152 237.24L413.152 257.252C413.152 259.027 411.7 260.48 409.925 260.48L402.017 260.48C402.339 260.964 402.501 261.609 402.339 262.255L400.241 288.722C402.178 288.561 403.792 288.4 405.083 288.4 407.181 288.238 409.925 287.916 413.475 287.431 413.636 287.431 413.798 287.431 413.798 287.431 414.605 287.431 415.412 287.754 415.896 288.238 416.542 288.884 417.026 289.691 417.026 290.659L417.026 310.671C417.026 312.285 415.735 313.738 414.121 313.899 408.149 314.544 402.824 315.029 398.143 315.351 393.463 315.674 388.299 315.997 382.65 316.32 378.293 316.481 373.29 316.643 367.641 316.804 369.094 317.127 370.062 318.418 370.062 319.87L370.062 342.465 448.335 342.465C450.11 342.465 451.563 343.917 451.563 345.692L451.563 365.704C451.563 367.48 450.11 368.932 448.335 368.932L343.756 368.932ZM363.284 260.641C363.445 260.964 363.606 261.448 363.606 261.932L365.704 290.659 371.192 290.659 373.128 261.932C373.128 261.448 373.29 260.964 373.612 260.641L363.284 260.641ZM421.545 334.234C419.769 334.234 418.317 332.781 418.317 331.006L418.317 231.107C418.317 229.332 419.769 227.879 421.545 227.879L444.623 227.879C446.398 227.879 447.851 229.332 447.851 231.107L447.851 264.999 462.376 264.999C464.151 264.999 465.603 266.451 465.603 268.226L465.603 288.238C465.603 290.014 464.151 291.466 462.376 291.466L447.851 291.466 447.851 331.006C447.851 332.781 446.398 334.234 444.623 334.234L421.545 334.234Z" fill="url(#fill9)" transform="matrix(1.00232 0 0 1 284.528 146)"/><path d="M444.623 231.268 444.623 268.388 462.376 268.388 462.376 288.4 444.623 288.4 444.623 331.167 421.545 331.167 421.545 231.268 444.623 231.268M410.086 237.401 410.086 257.413 328.424 257.413 328.424 237.401 410.086 237.401M399.273 262.255 399.273 262.255M399.273 262.255 396.852 292.434C400.403 292.273 403.308 291.95 405.406 291.789 407.504 291.627 410.409 291.305 413.798 290.821L413.798 310.833C407.827 311.478 402.662 311.962 397.982 312.285 393.302 312.608 388.137 312.931 382.489 313.253 373.612 313.738 361.992 313.899 347.468 313.899 333.104 313.899 325.357 313.899 324.228 313.899L324.228 293.887 340.044 293.887 337.3 262.094 360.217 262.094 362.477 293.887 373.935 293.725 376.033 262.094 399.273 262.094M366.995 320.032 366.995 345.854 448.496 345.854 448.496 365.866 343.756 365.866 343.756 320.032 366.995 320.032M444.623 224.813 421.545 224.813C417.994 224.813 415.089 227.718 415.089 231.268L415.089 233.367C413.959 231.914 412.023 230.946 410.086 230.946L328.424 230.946C324.873 230.946 321.968 233.851 321.968 237.401L321.968 257.413C321.968 260.964 324.873 263.869 328.424 263.869L331.167 263.869 333.265 287.593 324.389 287.593C320.839 287.593 317.934 290.498 317.934 294.048L317.934 314.06C317.934 317.611 320.839 320.516 324.389 320.516 325.196 320.516 329.392 320.516 337.3 320.516L337.3 366.027C337.3 369.578 340.205 372.483 343.756 372.483L448.335 372.483C451.885 372.483 454.79 369.578 454.79 366.027L454.79 346.015C454.79 342.465 451.885 339.56 448.335 339.56L373.29 339.56 373.29 320.193C373.29 320.193 373.29 320.193 373.29 320.193 376.679 320.032 379.906 320.032 382.811 319.87 388.46 319.548 393.786 319.225 398.466 318.902 403.146 318.579 408.633 318.095 414.605 317.449 414.766 317.449 414.928 317.449 415.089 317.449L415.089 331.329C415.089 334.879 417.994 337.784 421.545 337.784L444.623 337.784C448.173 337.784 451.078 334.879 451.078 331.329L451.078 295.017 462.376 295.017C465.926 295.017 468.831 292.112 468.831 288.561L468.831 268.549C468.831 264.999 465.926 262.094 462.376 262.094L451.078 262.094 451.078 231.43C451.078 227.718 448.173 224.813 444.623 224.813L444.623 224.813ZM405.729 263.869 410.086 263.869C412.184 263.869 413.959 262.9 415.089 261.448L415.089 284.526C414.766 284.526 414.282 284.365 413.959 284.365 413.636 284.365 413.475 284.365 413.152 284.365 409.763 284.688 406.858 285.011 404.76 285.333 404.437 285.333 404.115 285.333 403.792 285.495L405.729 263.869 405.729 263.869ZM366.995 263.869 369.739 263.869 368.448 283.558 366.995 263.869 366.995 263.869ZM399.273 268.71 399.273 268.71 399.273 268.71 399.273 268.71Z" fill="#FFFFFF" transform="matrix(1.00232 0 0 1 284.528 146)"/><path d="M590.84 403.469C590.517 403.469 590.356 403.469 590.033 403.308L559.37 395.077C558.563 394.916 557.917 394.27 557.433 393.624 556.949 392.818 556.949 392.011 557.11 391.204L565.341 360.701C565.664 359.249 566.955 358.281 568.407 358.281 568.73 358.281 568.891 358.281 569.214 358.442L599.878 366.673C600.685 366.834 601.33 367.48 601.814 368.125 602.299 368.932 602.299 369.739 602.137 370.546L593.906 401.048C593.584 402.501 592.293 403.469 590.84 403.469ZM602.137 348.759C601.814 348.759 601.653 348.759 601.33 348.597L576.799 341.98C575.186 341.496 574.217 340.044 574.379 338.43L582.932 278.394C582.932 278.232 582.932 278.071 582.932 278.071L605.688 193.342C605.849 192.535 606.495 191.89 607.14 191.406 607.624 191.083 608.27 190.922 608.754 190.922 609.077 190.922 609.238 190.922 609.561 191.083L647.81 201.412C649.585 201.896 650.554 203.671 650.069 205.285L627.314 290.014C627.314 290.175 627.314 290.175 627.152 290.336L605.204 346.822C604.719 347.952 603.428 348.759 602.137 348.759Z" fill="url(#fill10)" transform="matrix(1.00232 0 0 1 284.528 146)"/><path d="M608.916 194.311 647.164 204.64 624.409 289.368 602.137 345.692 577.606 339.075 586.16 279.039 608.916 194.311M568.407 361.67 599.071 369.9 590.84 400.403 560.177 392.172 568.407 361.67M608.916 187.855C606.011 187.855 603.428 189.792 602.621 192.697L579.866 277.425C579.866 277.748 579.704 277.91 579.704 278.232L571.151 338.268C570.667 341.496 572.765 344.563 575.831 345.37L600.362 351.986C600.846 352.148 601.492 352.148 601.976 352.148 604.558 352.148 606.979 350.534 607.947 348.113L630.219 291.789C630.38 291.627 630.38 291.305 630.38 291.143L653.136 206.415C653.62 204.801 653.297 203.026 652.49 201.573 651.683 200.121 650.231 198.991 648.617 198.507L610.368 188.178C609.884 188.017 609.4 187.855 608.916 187.855L608.916 187.855ZM568.407 355.214C565.502 355.214 562.92 357.151 562.113 360.056L553.882 390.558C553.398 392.172 553.721 393.947 554.528 395.4 555.335 396.852 556.787 397.982 558.401 398.466L589.065 406.697C589.549 406.858 590.195 406.858 590.679 406.858 593.584 406.858 596.166 404.922 596.973 402.017L605.204 371.514C605.688 369.9 605.365 368.125 604.558 366.673 603.751 365.22 602.299 364.091 600.685 363.606L570.021 355.376C569.537 355.214 568.891 355.214 568.407 355.214L568.407 355.214Z" fill="#FFFFFF" transform="matrix(1.00232 0 0 1 284.528 146)"/><path d="M165.261 229.009C164.938 229.009 164.777 229.009 164.454 228.848L31.1478 193.181C30.3409 193.02 29.6953 192.374 29.2112 191.729 28.727 191.083 28.727 190.115 28.8884 189.308L42.1222 139.6C42.2836 138.793 42.9291 138.148 43.5747 137.664 44.0588 137.341 44.7044 137.179 45.1885 137.179 45.5113 137.179 45.6727 137.179 45.9955 137.341L77.4661 145.733C79.2413 146.217 80.2097 147.992 79.7255 149.606L73.7542 171.878 172.523 198.345C174.299 198.83 175.267 200.605 174.783 202.219L168.327 226.588C168.166 227.395 167.52 228.041 166.875 228.525 166.391 229.009 165.906 229.009 165.261 229.009ZM171.716 185.434C171.394 185.434 171.232 185.434 170.91 185.273L141.376 177.365C139.6 176.881 138.632 175.106 139.116 173.492L173.814 43.8974C174.137 42.4449 175.428 41.4766 176.881 41.4766 177.204 41.4766 177.365 41.4766 177.688 41.638L207.222 49.546C208.029 49.7074 208.674 50.3529 209.158 50.9985 209.643 51.644 209.643 52.6124 209.481 53.4193L196.409 102.32 215.775 107.484C217.551 107.968 218.519 109.744 218.035 111.357L210.934 137.825C210.772 138.632 210.127 139.278 209.481 139.762 208.997 140.084 208.351 140.246 207.867 140.246 207.545 140.246 207.383 140.246 207.06 140.084L187.694 134.92 174.783 182.852C174.621 183.659 173.976 184.305 173.33 184.789 172.846 185.273 172.201 185.434 171.716 185.434ZM101.997 149.122C94.7345 149.122 86.6652 147.992 78.273 145.733 63.9095 141.86 52.1282 135.404 43.2519 126.367 33.8914 116.845 30.5023 107 33.2459 96.8326 35.9894 86.3424 44.0588 79.2413 56.8084 75.8522 62.1342 74.3997 67.7828 73.7542 73.5928 73.5928L40.5083 64.7164C38.733 64.2323 37.7647 62.457 38.2489 60.8431L44.3816 37.9261C44.543 37.1192 45.1885 36.4736 45.8341 35.9894 46.3183 35.6667 46.9638 35.5053 47.448 35.5053 47.7707 35.5053 47.9321 35.5053 48.2549 35.6667L72.3017 42.1222C71.0106 41.4766 70.365 39.8627 70.8492 38.4103L76.9819 16.1388C77.1433 15.3318 77.7888 14.6863 78.4344 14.2021 78.9186 13.8793 79.5641 13.7179 80.0483 13.7179 80.371 13.7179 80.5324 13.7179 80.8552 13.8793L142.344 30.3409C144.119 30.825 145.087 32.6003 144.603 34.2142L138.793 56.6471C138.632 57.454 137.986 58.0995 137.341 58.5837 136.857 58.9065 136.211 59.0679 135.727 59.0679 135.727 59.0679 160.258 65.6848 160.258 65.6848 162.033 66.1689 163.002 67.9442 162.517 69.5581L156.385 92.4751C156.223 93.2821 155.578 93.9276 154.932 94.4118 154.448 94.7345 153.802 94.8959 153.318 94.8959 152.995 94.8959 152.834 94.8959 152.511 94.7345L119.911 86.0196C125.075 89.086 129.594 92.4751 133.306 96.5098 142.183 105.87 145.249 115.876 142.505 126.367 139.762 136.373 132.176 143.151 119.75 146.863 114.101 148.315 108.291 149.122 101.997 149.122ZM77.3047 103.611C76.6591 103.611 76.175 103.611 75.5294 103.611 70.365 103.772 69.8808 105.709 69.7195 106.193 69.5581 107 68.9125 108.937 73.4314 111.519 77.4661 113.94 81.9849 115.715 86.8265 117.006 91.184 118.136 95.3801 118.781 99.5762 118.781 99.5762 118.781 100.383 118.781 100.706 118.781 105.548 118.62 106.032 116.845 106.193 116.199 106.354 115.392 106.839 113.456 102.804 110.873 99.092 108.452 94.7345 106.516 90.0543 105.225 85.6968 104.256 81.5008 103.611 77.3047 103.611Z" fill="url(#fill11)" transform="matrix(1.00232 0 0 1 284.528 146)"/><path d="M80.0483 16.9457 141.537 33.4072 135.566 55.8401 74.0769 39.2172 80.0483 16.9457M47.6094 38.733 159.29 68.5897 153.157 91.5068 41.3152 61.6501 47.6094 38.733M176.881 44.8658 206.415 52.7738 192.535 104.741 215.13 110.712 207.867 137.179 185.273 131.208 171.555 182.207 142.183 174.299 176.881 44.8658M74.2383 76.9819C81.178 76.9819 88.6018 77.9502 96.187 80.0483 111.196 83.9216 122.655 90.2157 130.724 98.6078 138.793 107 141.698 116.038 139.116 125.398 136.695 134.275 129.917 140.246 118.62 143.635 113.456 145.087 107.968 145.894 101.997 145.894 94.8959 145.894 87.3107 144.765 79.2413 142.667 65.362 138.955 54.2262 132.822 45.6727 124.107 37.1192 115.392 34.0528 106.677 36.4736 97.6395 39.0558 88.279 46.1569 81.9849 57.7768 78.9186 63.1026 77.6274 68.5897 76.9819 74.2383 76.9819M99.4148 122.009C99.7376 122.009 100.222 122.009 100.544 122.009 105.386 121.848 108.291 120.234 109.098 117.167 109.905 113.94 108.452 110.873 104.256 108.291 100.222 105.709 95.5415 103.611 90.5385 102.32 86.0196 101.19 81.5008 100.544 77.1433 100.544 76.4977 100.544 75.8522 100.544 75.2066 100.544 70.2036 100.706 67.1373 102.481 66.3303 105.548 65.362 108.937 67.1373 112.003 71.4947 114.424 75.8522 117.006 80.5324 118.943 85.6968 120.234 90.5385 121.525 95.0573 122.009 99.4148 122.009M45.3499 140.569 76.8205 148.961 69.8808 174.299 171.716 201.573 165.261 225.943 31.9548 190.276 45.3499 140.569M80.0483 10.4902C77.1433 10.4902 74.5611 12.4268 73.7542 15.3318L67.7828 37.6033 49.0618 32.6003C48.5777 32.4389 47.9321 32.4389 47.448 32.4389 46.3183 32.4389 45.1885 32.7617 44.2202 33.2459 42.7677 34.0528 41.638 35.5053 41.1538 37.1192L35.0211 60.0362C34.0528 63.4253 36.1508 66.9759 39.54 67.9442L56.8084 72.6244C56.4857 72.6244 56.3243 72.7858 56.0015 72.7858 41.9608 76.4977 33.2459 84.2443 30.0181 96.0256 26.9517 107.323 30.6637 118.297 40.8311 128.626 42.9291 130.724 45.0271 132.661 47.448 134.436L46.8024 134.275C46.3183 134.113 45.6727 134.113 45.1885 134.113 44.0588 134.113 42.9291 134.436 41.9608 134.92 40.5083 135.727 39.3786 137.179 38.8944 138.793L25.822 188.501C24.8537 191.89 26.9517 195.44 30.3409 196.409L163.647 232.075C164.131 232.237 164.777 232.237 165.261 232.237 168.166 232.237 170.748 230.3 171.555 227.395L178.011 203.026C178.495 201.412 178.172 199.637 177.365 198.184 176.558 196.732 175.106 195.602 173.492 195.118L77.9502 169.457 83.1146 150.413C83.1146 150.252 83.1146 150.09 83.276 149.929 89.8929 151.382 96.3484 152.027 102.32 152.027 108.775 152.027 114.908 151.22 120.718 149.445 134.275 145.41 142.667 137.825 145.733 126.689 148.799 115.069 145.572 103.934 135.727 93.7662 135.404 93.4434 135.243 93.1207 134.92 92.9593L151.704 97.4781C152.189 97.6395 152.834 97.6395 153.318 97.6395 154.287 97.6395 155.416 97.3167 156.385 96.8326L135.888 172.685C134.92 176.074 137.018 179.624 140.407 180.593L169.941 188.501C170.425 188.662 171.071 188.662 171.555 188.662 174.46 188.662 177.042 186.725 177.849 183.821L189.792 139.116 206.092 143.474C206.576 143.635 207.222 143.635 207.706 143.635 208.836 143.635 209.965 143.312 210.934 142.828 212.386 142.021 213.516 140.569 214 138.955L221.101 112.487C222.069 109.098 219.971 105.548 216.582 104.579L200.282 100.06 212.548 54.2262C213.516 50.8371 211.418 47.2866 208.029 46.3183L178.495 38.4103C178.011 38.2489 177.365 38.2489 176.881 38.2489 175.751 38.2489 174.621 38.5716 173.653 39.0558 172.201 39.8627 171.071 41.3152 170.587 42.9291L164.615 65.0392C163.808 63.7481 162.517 62.6184 160.742 62.2956L141.698 57.1312 147.67 34.8597C148.154 33.2459 147.831 31.4706 147.024 30.0181 146.217 28.5656 144.765 27.4359 143.151 26.9517L81.8235 10.6516C81.178 10.4902 80.6938 10.4902 80.0483 10.4902L80.0483 10.4902ZM72.9472 107.323C73.4314 107.161 74.2383 107 75.6908 106.839 76.175 106.839 76.8205 106.839 77.3047 106.839 81.178 106.839 85.0513 107.323 89.086 108.452 93.4434 109.582 97.3167 111.357 100.867 113.617 101.997 114.424 102.643 114.908 102.804 115.231 102.481 115.392 101.674 115.554 100.544 115.554 100.222 115.554 99.8989 115.554 99.5762 115.554 95.7029 115.554 91.6682 115.069 87.6335 113.94 83.1146 112.649 78.7572 111.035 74.8839 108.775 73.7542 108.13 73.1086 107.646 72.9472 107.323L72.9472 107.323Z" fill="#FFFFFF" transform="matrix(1.00232 0 0 1 284.528 146)"/><path d="M557.594 363.606C555.819 363.606 554.367 362.154 554.367 360.379L554.367 300.665 552.107 300.665 552.107 354.407C552.107 356.182 550.655 357.635 548.879 357.635L527.253 357.635C525.478 357.635 524.026 356.182 524.026 354.407L524.026 229.493C524.026 227.718 525.478 226.265 527.253 226.265L548.879 226.265C550.655 226.265 552.107 227.718 552.107 229.493L552.107 271.615 554.367 271.615 554.367 226.427C554.367 224.652 555.819 223.199 557.594 223.199L579.22 223.199C580.995 223.199 582.448 224.652 582.448 226.427L582.448 360.379C582.448 362.154 580.995 363.606 579.22 363.606L557.594 363.606ZM461.569 336.009C459.793 336.009 458.341 334.557 458.341 332.781L458.341 242.566C458.341 240.79 459.793 239.338 461.569 239.338L517.732 239.338C519.507 239.338 520.959 240.79 520.959 242.566L520.959 332.781C520.959 334.557 519.507 336.009 517.732 336.009L461.569 336.009ZM492.716 310.026 492.716 265.16 486.745 265.16 486.745 310.026 492.716 310.026Z" fill="url(#fill12)" transform="matrix(1.00232 0 0 1 284.528 146)"/><path d="M579.22 226.427 579.22 360.379 557.594 360.379 557.594 297.437 548.879 297.437 548.879 354.407 527.253 354.407 527.253 229.493 548.879 229.493 548.879 274.843 557.594 274.843 557.594 226.427 579.22 226.427M517.732 242.566 517.732 332.781 461.569 332.781 461.569 242.566 517.732 242.566M483.356 313.253 495.783 313.253 495.783 261.932 483.356 261.932 483.356 313.253M579.22 219.971 557.594 219.971C555.012 219.971 552.753 221.424 551.784 223.683 550.977 223.199 549.848 223.038 548.879 223.038L527.253 223.038C523.703 223.038 520.798 225.943 520.798 229.493L520.798 236.756C519.991 236.271 519.023 236.11 517.893 236.11L461.569 236.11C458.018 236.11 455.113 239.015 455.113 242.566L455.113 332.781C455.113 336.332 458.018 339.237 461.569 339.237L517.732 339.237C518.7 339.237 519.83 338.914 520.637 338.591L520.637 354.407C520.637 357.958 523.542 360.863 527.092 360.863L548.718 360.863C549.525 360.863 550.332 360.701 550.977 360.379 550.977 363.929 553.882 366.834 557.433 366.834L579.059 366.834C582.609 366.834 585.514 363.929 585.514 360.379L585.514 226.427C585.676 222.876 582.771 219.971 579.22 219.971L579.22 219.971Z" fill="#FFFFFF" transform="matrix(1.00232 0 0 1 284.528 146)"/></g></svg>